<svg height="25" width="25" fill="#070000" xmlns="http://www.w3.org/2000/svg" xmlns:xlink="http://www.w3.org/1999/xlink" version="1.1" x="0px" y="0px" viewBox="0 0 128 128" style="enable-background:new 0 0 128 128;" xml:space="preserve"><path d="M115.4,63.9c-1-0.2-23.9-6-34.5,1.4c-8.8,6.2-11.6,17.6-6.9,26.6L66.5,97V61.3c10-1.3,17.8-10.2,17.8-20.9  c0-12.9-17.9-28.4-18.6-29c-0.9-0.8-2.4-0.8-3.3,0c-0.8,0.7-18.6,16.1-18.6,29c0,10.7,7.8,19.6,17.8,20.9V97L54,91.8  c4.7-8.9,1.9-20.4-6.9-26.6c-10.6-7.4-33.5-1.6-34.5-1.4c-1.2,0.3-2,1.5-1.9,2.7c0.1,1,2.5,24.5,13.1,31.9c3.7,2.6,8,3.9,12.3,3.9  c1.1,0,2.2-0.1,3.2-0.2c4.6-0.7,8.7-2.9,11.7-6.2l10.3,7.2v11.6c0,1.4,1.1,2.5,2.5,2.5c1.4,0,2.5-1.1,2.5-2.5v-11.6l10.3-7.2  c3,3.3,7.1,5.5,11.7,6.2c1.1,0.2,2.2,0.2,3.2,0.2c4.4,0,8.7-1.4,12.3-3.9c10.6-7.4,13-30.9,13.1-31.9  C117.4,65.3,116.6,64.2,115.4,63.9z M38.6,97.2c-4.1,0.6-8.4-0.4-11.9-2.8c-6.5-4.5-9.7-18.8-10.7-26.1c7.2-1.5,21.7-3.4,28.2,1.1  c6.5,4.5,8.7,12.8,5.6,19.4l-14.4-10c-1.1-0.8-2.7-0.5-3.5,0.6c-0.8,1.1-0.5,2.7,0.6,3.5l14.4,10C44.7,95.2,41.9,96.7,38.6,97.2z   M48.8,40.4c0-7.9,9.8-18.7,15.2-23.7c5.4,5,15.2,15.8,15.2,23.7c0,7.9-5.5,14.5-12.7,15.8V38.6c0-1.4-1.1-2.5-2.5-2.5  c-1.4,0-2.5,1.1-2.5,2.5v17.5C54.3,54.9,48.8,48.3,48.8,40.4z M101.3,94.3c-3.5,2.5-7.7,3.5-11.9,2.8c-3.2-0.5-6.1-2-8.3-4.2  l14.4-10c1.1-0.8,1.4-2.4,0.6-3.5c-0.8-1.1-2.4-1.4-3.5-0.6l-14.4,10c-3.1-6.6-0.8-14.9,5.6-19.4c6.5-4.5,20.9-2.7,28.2-1.1  C110.9,75.6,107.7,89.8,101.3,94.3z"></path></svg>