<svg width="100%" height="100%" viewBox="0 0 752 752" version="1.1" xmlns="http://www.w3.org/2000/svg" xmlns:xlink="http://www.w3.org/1999/xlink" xml:space="preserve" xmlns:serif="http://www.serif.com/" style="fill-rule:evenodd;clip-rule:evenodd;stroke-linejoin:round;stroke-miterlimit:2;">
    <g transform="matrix(1.50784,0,0,1.56719,-190.947,-213.266)">
        <path d="M588.95,229.98L360.37,229.98L360.37,190.671C360.37,177.53 349.682,166.835 336.534,166.835L163.044,166.835C149.896,166.835 139.208,177.523 139.208,190.671L139.208,561.331C139.208,574.472 149.896,585.167 163.044,585.167L588.954,585.167C602.095,585.167 612.79,574.479 612.79,561.331L612.794,316.801L612.794,253.817C612.794,240.665 602.106,229.977 588.954,229.977L588.95,229.98ZM597.001,561.33C597.001,565.775 593.395,569.381 588.95,569.381L163.04,569.381C158.599,569.381 154.989,565.775 154.989,561.33L154.989,316.81L596.999,316.81L597.001,561.33ZM154.991,301.02L154.991,190.67C154.991,186.229 158.6,182.619 163.042,182.619L336.532,182.619C340.969,182.619 344.582,186.225 344.582,190.67L344.582,245.764L588.952,245.764C593.398,245.764 597.003,249.37 597.003,253.815L597.003,301.014L154.991,301.02Z" style="fill-rule:nonzero;"/>
    </g>
</svg>
