<svg height='300px' width='300px'  fill="#000000" xmlns="http://www.w3.org/2000/svg" xmlns:xlink="http://www.w3.org/1999/xlink" version="1.0" x="0px" y="0px" viewBox="0 0 100 100" enable-background="new 0 0 100 100" xml:space="preserve"><path d="M83.7553101,39.1164932c-5.1266098,0-9.4259491,3.5339622-10.5999222,8.2981949H59.6338196  c-1.1739693-4.7642326-5.4733047-8.2981949-10.5999146-8.2981949s-9.4259453,3.5339622-10.5999146,8.2981949H26.7685966  c-1.1739731-4.7642326-5.4733086-8.2981949-10.5999165-8.2981949C10.1384811,39.1164932,5.25,44.0049477,5.25,50.0351715  c0,6.030117,4.8884811,10.9186783,10.9186802,10.9186783c5.1266079,0,9.4259434-3.5340691,10.5999165-8.2981949h11.6653938  c1.173996,4.7641258,5.4733086,8.2981949,10.5999146,8.2981949s9.4259453-3.5340691,10.5999146-8.2981949h13.5215683  c1.1740036,4.7641258,5.4733124,8.2981949,10.5999222,8.2981949c6.03022,0,10.9186783-4.8885612,10.9186783-10.9186783  C94.6739883,44.0049477,89.7855301,39.1164932,83.7553101,39.1164932z"></path><path d="M60.1075668,69.6086121c-2.6337318,1.5479126-4.377121,4.0294571-5.0610313,6.7769394H42.2569923  c-0.6839104-2.7474823-2.4272995-5.2290268-5.0610313-6.7769394c-5.198822-3.0555267-11.8902435-1.3180237-14.945715,3.8808212  c-3.0554714,5.1987381-1.3179722,11.890274,3.8808231,14.9456863c5.1988201,3.0555267,11.8902435,1.3180313,14.9457169-3.8808212  c0.5508919-0.9373627,0.9436264-1.9234543,1.190712-2.9277802h12.7685356  c0.2470818,1.0043259,0.6398201,1.9904175,1.190712,2.9277802c3.0554695,5.1988525,9.7468948,6.936348,14.9457169,3.8808212  c5.1987915-3.0554123,6.9362946-9.7469482,3.8808212-14.9456863C71.9977875,68.2905884,65.306366,66.5530853,60.1075668,69.6086121z  "></path><path d="M37.195961,29.6963577c2.4342842-1.4307308,4.109539-3.6587162,4.8893356-6.1572189H55.218235  c0.7797928,2.4985027,2.4550476,4.7264881,4.8893318,6.1572189c5.1987991,3.0554161,11.8902206,1.3179188,14.9457169-3.8808231  c3.0554733-5.1988468,1.3179703-11.8902712-3.8808212-14.9457951c-5.198822-3.055418-11.8902473-1.3179188-14.9457169,3.8808231  c-0.6638908,1.1296139-1.1009064,2.3297081-1.3259163,3.5476112H42.4026985  c-0.2250099-1.2179031-0.6620216-2.4179974-1.3259125-3.5476112c-3.0554733-5.1987419-9.7468967-6.9362411-14.9457169-3.8808231  c-5.1987953,3.0555239-6.9362946,9.7469482-3.8808231,14.9457951C25.3057175,31.0142765,31.997139,32.7517738,37.195961,29.6963577z  "></path></svg>