<svg width="100%" height="100%" viewBox="0 0 300 300" version="1.1" xmlns="http://www.w3.org/2000/svg" xmlns:xlink="http://www.w3.org/1999/xlink" xml:space="preserve" xmlns:serif="http://www.serif.com/" style="fill-rule:evenodd;clip-rule:evenodd;stroke-linejoin:round;stroke-miterlimit:2;">
    <g transform="matrix(1.03462,0,0,1.03462,-12.6572,-10.9466)">
        <g transform="matrix(1.05463,0,0,1.05463,-0.860403,-1.53441)">
            <path d="M251.266,117.349C235.886,117.349 222.988,127.951 219.466,142.244L178.901,142.244C175.38,127.951 162.482,117.349 147.102,117.349C131.722,117.349 118.824,127.951 115.302,142.244L80.306,142.244C76.784,127.951 63.886,117.349 48.506,117.349C30.415,117.349 15.75,132.015 15.75,150.106C15.75,168.196 30.415,182.862 48.506,182.862C63.886,182.862 76.784,172.259 80.306,157.967L115.302,157.967C118.824,172.259 131.722,182.862 147.102,182.862C162.482,182.862 175.38,172.259 178.901,157.967L219.466,157.967C222.988,172.259 235.886,182.862 251.266,182.862C269.357,182.862 284.022,168.196 284.022,150.106C284.022,132.015 269.357,117.349 251.266,117.349Z" style="fill-rule:nonzero;"/>
        </g>
        <g transform="matrix(1.05463,0,0,1.05463,-0.860403,-1.53441)">
            <path d="M180.323,208.826C172.422,213.47 167.191,220.914 165.14,229.157L126.771,229.157C124.719,220.914 119.489,213.47 111.588,208.826C95.991,199.659 75.917,204.872 66.751,220.468C57.584,236.065 62.797,256.139 78.393,265.305C93.99,274.472 114.064,269.259 123.23,253.663C124.883,250.851 126.061,247.893 126.802,244.88L165.108,244.88C165.849,247.893 167.028,250.851 168.68,253.663C177.847,269.259 197.921,274.472 213.517,265.305C229.114,256.139 234.326,236.065 225.16,220.468C215.993,204.872 195.919,199.659 180.323,208.826Z" style="fill-rule:nonzero;"/>
        </g>
        <g transform="matrix(1.05463,0,0,1.05463,-0.860403,-1.53441)">
            <path d="M111.588,89.089C118.891,84.797 123.916,78.113 126.256,70.617L165.655,70.617C167.994,78.113 173.02,84.797 180.323,89.089C195.919,98.255 215.993,93.043 225.16,77.447C234.326,61.85 229.114,41.776 213.517,32.609C197.921,23.443 177.847,28.655 168.68,44.252C166.689,47.641 165.378,51.241 164.702,54.895L127.208,54.895C126.533,51.241 125.222,47.641 123.23,44.252C114.064,28.655 93.99,23.443 78.393,32.609C62.797,41.776 57.584,61.85 66.751,77.447C75.917,93.043 95.991,98.255 111.588,89.089Z" style="fill-rule:nonzero;"/>
        </g>
    </g>
</svg>
