<svg width="100%" height="100%" viewBox="0 0 100 100" version="1.1" xmlns="http://www.w3.org/2000/svg" xmlns:xlink="http://www.w3.org/1999/xlink" xml:space="preserve" xmlns:serif="http://www.serif.com/" style="fill-rule:evenodd;clip-rule:evenodd;stroke-linejoin:round;stroke-miterlimit:2;">
    <g transform="matrix(1.31956,0,0,1.31956,-15.9779,-15.9779)">
        <path d="M50,12.9C29.5,12.9 12.9,29.6 12.9,50C12.9,60.3 17.1,69.6 23.9,76.3C24,76.4 24.1,76.6 24.3,76.7C30.9,83.1 40,87.1 50,87.1C59.5,87.1 68.2,83.5 74.8,77.6C74.9,77.5 75.1,77.4 75.2,77.2C82.5,70.4 87.1,60.7 87.1,50C87.1,29.5 70.5,12.9 50,12.9ZM27.9,74.7C30.1,71 33.4,67.8 37.2,65.3C39.5,66.5 45,69 49.3,69C53.6,69 59.1,66.4 61.4,65.3C65.5,67.9 68.9,71.5 71.1,75.5C65.4,80.3 58,83.1 50,83.1C41.5,83.1 33.8,79.9 27.9,74.7ZM74.1,72.7C71.3,68.2 67.3,64.2 62.5,61.3C61.9,60.9 61.1,60.9 60.5,61.3C58.6,62.3 52.9,65.1 49.3,65.1C45.7,65.1 40,62.4 38.1,61.3C37.5,61 36.7,61 36.1,61.3C31.6,64 27.8,67.6 25.1,71.8C20,65.9 16.9,58.3 16.9,50C16.9,31.7 31.8,16.9 50,16.9C68.2,16.9 83.1,31.7 83.1,50C83.1,58.8 79.7,66.7 74.1,72.7Z" style="fill-rule:nonzero;"/>
        <path d="M50,28C40.7,28 35.4,33.8 35.4,44C35.4,53.5 42.6,62.8 50,62.8C57.6,62.8 64.6,53.8 64.6,44C64.5,33.8 59.2,28 50,28ZM50,58.8C44.4,58.8 39.4,50.5 39.4,44C39.4,38.5 41.2,32 50,32C58.8,32 60.6,38.5 60.6,44C60.5,51.4 55.3,58.8 50,58.8Z" style="fill-rule:nonzero;"/>
    </g>
</svg>
