<svg width="100%" height="100%" viewBox="0 0 752 752" version="1.1" xmlns="http://www.w3.org/2000/svg" xmlns:xlink="http://www.w3.org/1999/xlink" xml:space="preserve" xmlns:serif="http://www.serif.com/" style="fill-rule:evenodd;clip-rule:evenodd;stroke-linejoin:round;stroke-miterlimit:2;">
    <g id="_-000000ff" serif:id="#000000ff" transform="matrix(2.92651,0,0,2.92651,-724.359,-724.4)">
        <path d="M298.41,288.56C304.56,287.32 311.09,291.83 312.09,298.03C312.86,301.85 311.51,305.91 308.76,308.64C302.91,314.59 296.96,320.47 291.05,326.36C306.04,326.28 321.02,326.38 336.01,326.31C338.5,326.34 341.12,326.36 343.37,327.56C347.2,329.34 349.07,333.35 351.36,336.64C374.32,371.07 397.24,405.52 420.22,439.94C443.51,439.95 466.81,439.89 490.1,439.96C496.37,439.92 501.77,445.75 501.5,451.97C501.5,458.06 496.13,463.55 490.01,463.5C464.07,463.65 438.12,463.35 412.2,463.68C406.72,463.17 403.43,458.41 401.06,453.99C378.06,419.28 354.9,384.66 331.82,350C318.24,350.01 304.65,349.99 291.07,350C297.03,356.04 303.12,361.96 309.04,368.04C312.63,371.63 313.38,377.59 310.84,381.97C307.54,388.34 298.11,390.09 292.84,385.16C279.65,372.34 266.95,359.01 253.67,346.29C249.43,342.15 249.32,334.74 253.31,330.4C264.93,319.35 276.05,307.78 287.45,296.51C290.69,293.4 293.64,289.25 298.41,288.56Z" style="fill-rule:nonzero;"/>
        <path d="M443.02,291.98C447.2,287.45 455.01,287.15 459.45,291.47C471.93,303.64 483.97,316.28 496.6,328.3C500.35,331.2 502.51,336.25 501.21,340.94C500.33,345.22 496.58,347.84 493.69,350.76C484.03,360.41 474.37,370.06 464.72,379.71C461.44,382.82 458.51,386.98 453.77,387.81C448.64,388.9 443.04,386.1 440.83,381.35C438.66,377.02 439.53,371.41 442.99,368C448.95,361.97 454.99,356.02 460.97,350C445.27,349.98 429.57,350.03 413.88,349.99C408.15,350.23 402.77,345.74 401.97,340.08C400.64,333.36 406.3,326.42 413.16,326.39C429.07,326.25 444.99,326.39 460.9,326.33C454.89,320.23 448.74,314.27 442.79,308.13C438.56,303.79 438.74,296.21 443.02,291.98Z" style="fill-rule:nonzero;"/>
        <path d="M258.43,440.55C261.54,439.6 264.84,439.97 268.05,439.92C291.4,439.95 314.75,439.92 338.11,439.93C343.87,439.64 349.27,444.23 350.04,449.93C351.34,456.89 345.2,463.91 338.13,463.53C312.76,463.52 287.38,463.57 262.01,463.5C256.25,463.54 251.07,458.71 250.56,453C249.88,447.67 253.35,442.24 258.43,440.55Z" style="fill-rule:nonzero;"/>
    </g>
</svg>
