<svg width="100%" height="100%" viewBox="0 0 300 300" version="1.1" xmlns="http://www.w3.org/2000/svg" xmlns:xlink="http://www.w3.org/1999/xlink" xml:space="preserve" xmlns:serif="http://www.serif.com/" style="fill-rule:evenodd;clip-rule:evenodd;stroke-linejoin:round;stroke-miterlimit:2;">
    <g transform="matrix(1.05482,0,0,1.05482,-246.767,-247.861)">
        <path d="M489.19,426.2C474.155,417.438 455.721,419.891 443.252,432.36L425.256,421.942C427.151,416.731 428.096,410.575 428.096,404.419C428.096,378.845 409.627,357.536 385.475,353.271L385.475,331.959C401.577,327.697 413.889,313.018 413.889,295.494C413.889,274.658 396.838,257.607 376.002,257.607C355.166,257.607 338.115,274.658 338.115,295.494C338.115,313.017 350.427,327.697 366.529,331.959L366.529,353.271C342.377,357.533 323.908,378.841 323.908,404.419C323.908,410.575 324.853,416.259 326.748,421.942L308.752,432.36C296.799,420.407 278.354,417.145 262.814,426.2C244.818,436.618 238.662,459.829 249.08,477.821C258.716,495.036 281.674,502.641 300.701,491.555C315.857,482.559 322.486,465.032 318.224,448.934L336.693,438.516C346.165,449.875 360.373,456.981 376.474,456.981C392.576,456.981 406.783,449.875 416.255,438.516L434.724,448.934C430.462,465.032 437.091,483.028 452.244,491.555C470.42,502.145 493.631,496.09 503.865,477.821C513.341,459.825 507.185,436.622 489.189,426.2L489.19,426.2ZM291.23,475.454C285.66,479.165 272.222,479.786 265.183,468.349C259.972,459.352 263.289,447.513 272.289,442.301C282.515,437.192 293,440.739 298.336,449.407C303.543,458.407 300.226,470.243 291.23,475.454ZM357.058,295.494C357.058,285.076 365.581,276.553 375.999,276.553C386.417,276.553 394.94,285.076 394.94,295.494C394.94,305.912 386.417,314.435 375.999,314.435C365.581,314.439 357.058,305.912 357.058,295.494ZM375.999,437.564C357.53,437.564 342.847,422.884 342.847,404.412C342.847,385.943 357.527,371.26 375.999,371.26C394.468,371.26 409.151,385.94 409.151,404.412C409.151,422.885 394.471,437.564 375.999,437.564ZM486.819,468.349C482.467,476.427 471.467,480.798 460.772,475.455C451.776,470.244 448.456,458.404 453.666,449.408C459.014,440.724 469.498,437.209 479.713,442.302C488.713,447.509 492.025,459.349 486.819,468.349Z" style="fill-rule:nonzero;"/>
    </g>
</svg>
