<svg width="100%" height="100%" viewBox="0 0 752 752" version="1.1" xmlns="http://www.w3.org/2000/svg" xmlns:xlink="http://www.w3.org/1999/xlink" xml:space="preserve" xmlns:serif="http://www.serif.com/" style="fill-rule:evenodd;clip-rule:evenodd;stroke-linejoin:round;stroke-miterlimit:2;">
    <g transform="matrix(2.54086,0,0,2.54086,-582.08,-579.99)">
        <path d="M239.61,512.87C246.716,519.976 257.606,519.976 264.712,512.87L376.482,401.1L488.252,512.87C494.881,520.448 505.775,520.921 513.354,514.765C520.933,508.608 521.405,497.241 515.248,489.663C514.776,489.19 514.303,488.241 513.354,487.768L401.584,375.998L513.354,264.228C520.459,257.599 520.932,246.232 514.299,239.126C507.67,232.021 496.303,231.548 489.197,238.181C488.725,238.653 488.725,238.653 488.252,239.126L376.492,350.896L264.722,239.126C257.616,232.497 246.253,232.97 239.62,240.071C233.464,246.7 233.464,257.594 239.62,264.223L351.39,375.993L239.62,487.763C232.991,494.869 232.991,505.759 239.62,512.865L239.61,512.87Z" style="fill-rule:nonzero;"/>
    </g>
</svg>
