<svg height='300px' width='300px'  fill="#000000" xmlns="http://www.w3.org/2000/svg" xmlns:xlink="http://www.w3.org/1999/xlink" version="1.0" x="0px" y="0px" viewBox="0 0 100 100" enable-background="new 0 0 100 100" xml:space="preserve"><path d="M76.667,56.668V20.002c0-5.521-4.477-10-10-10H20c-5.521,0-10,4.476-10,10v23.333h13.333v36.667c0,5.521,4.477,10,10,9.996  H80c5.521,0,10-4.476,10-9.996V56.668H76.667z M23.333,36.668h-6.666V20.002c0-1.843,1.49-3.334,3.333-3.334  s3.333,1.491,3.333,3.334V36.668z M36.673,79.998c0,1.843-1.497,3.337-3.333,3.337h-0.007c-1.842,0-3.333-1.494-3.333-3.333V16.668  h36.667c1.842,0,3.333,1.491,3.333,3.334v36.666H36.673C36.673,56.668,36.673,80.002,36.673,79.998z M83.333,79.998  c0,1.843-1.494,3.337-3.333,3.337H43.34v-20h39.993C83.333,63.335,83.333,80.002,83.333,79.998z"></path><rect x="36.667" y="23.335" width="26.666" height="6.667"></rect><rect x="36.667" y="36.668" width="26.666" height="6.667"></rect><rect x="50" y="70.002" width="26.667" height="6.666"></rect></svg>