<svg width="100%" height="100%" viewBox="0 0 752 752" version="1.1" xmlns="http://www.w3.org/2000/svg" xmlns:xlink="http://www.w3.org/1999/xlink" xml:space="preserve" xmlns:serif="http://www.serif.com/" style="fill-rule:evenodd;clip-rule:evenodd;stroke-linejoin:round;stroke-miterlimit:2;">
    <g id="_-000000ff" serif:id="#000000ff" transform="matrix(1.74509,0,0,1.74509,-280.152,-280.156)">
        <path d="M244.52,164.79C249.29,164.11 254.12,163.87 258.95,163.87C337.31,163.87 415.67,163.86 494.04,163.88C519.68,163.64 545.15,174.57 562.62,193.35C575.68,207.16 584.38,225.04 587.1,243.87C588.41,252.17 588.09,260.6 588.13,268.98C588.12,344 588.14,419.02 588.12,494.04C588.27,516.61 579.91,539.09 564.98,556.02C547.66,576.09 521.5,588.11 494.98,588.11C415.98,588.16 336.99,588.13 258,588.12C238.53,588.23 219.08,582.09 203.26,570.73C183.73,556.93 169.85,535.39 165.51,511.86C163.38,501.38 163.95,490.64 163.87,480.03C163.88,406.02 163.87,332.01 163.88,258C163.52,228.73 177.98,199.86 201.52,182.51C214.07,173.12 229,166.95 244.52,164.79M253.39,193.62C234.39,194.68 216.33,204.99 205.36,220.47C197.55,231.3 193.36,244.64 193.48,257.99L193.48,494.04C193.39,506.7 197.12,519.39 204.24,529.88C216.06,547.94 237.42,559.15 259.01,558.53C337.35,558.53 415.69,558.54 494.03,558.53C510.98,558.68 527.87,551.76 539.76,539.66C551.79,527.76 558.7,510.92 558.52,494C558.53,419.67 558.52,345.35 558.53,271.03C558.44,261.14 559.16,251.05 556.44,241.4C550.82,219.11 532.24,200.74 509.89,195.37C499.78,192.69 489.25,193.64 478.93,193.47C403.75,193.57 328.56,193.26 253.39,193.62Z" style="fill-rule:nonzero;"/>
        <path d="M246.56,346.43C251.44,340.79 260.63,339.88 266.52,344.46C292.86,364.21 319.22,383.92 345.51,403.72C352.98,409.02 353.21,421.27 345.95,426.85C321.66,445.25 297.19,463.43 272.84,481.75C268.1,485.19 263.38,489.93 257.01,489.4C248.3,489.34 241.17,480.43 243.11,471.91C243.89,466.68 248.01,462.98 252.2,460.24C272.11,445.33 291.98,430.38 311.88,415.48C290.69,399.52 269.43,383.65 248.24,367.69C241.85,362.7 241.03,352.36 246.56,346.43Z" style="fill-rule:nonzero;"/>
        <path d="M391.36,460.57C393.17,459.93 395.12,459.87 397.04,459.85C436.01,459.89 474.98,459.85 513.95,459.87C519.38,459.79 524.7,462.93 527.19,467.77C529.56,472.14 529.45,477.67 526.95,481.97C524.38,486.58 519.22,489.52 513.94,489.46C474.65,489.48 435.36,489.47 396.07,489.46C389.41,489.64 383.03,484.86 381.43,478.37C379.29,471.02 384.04,462.68 391.36,460.57Z" style="fill-rule:nonzero;"/>
    </g>
</svg>
