<svg height='300px' width='300px'  fill="#070000" xmlns="http://www.w3.org/2000/svg" data-name="Layer 1" viewBox="0 0 100 100" x="0px" y="0px"><title>big4_outline</title><path d="M32.41,35.08L13.33,54.17,32.25,73.09a2,2,0,1,1-2.83,2.83L9.09,55.58a2,2,0,0,1,0-2.83l20.5-20.5A2,2,0,0,1,32.41,35.08ZM89.08,52.59L68.75,32.25a2,2,0,0,0-2.83,2.83L84.84,54,65.75,73.09a2,2,0,1,0,2.83,2.83l20.5-20.5A2,2,0,0,0,89.08,52.59ZM61.29,24.83a2,2,0,0,0-2.62,1.05L35.82,79.42A2,2,0,1,0,39.5,81L62.35,27.46A2,2,0,0,0,61.29,24.83Z"></path></svg>