<svg width="100%" height="100%" viewBox="0 0 752 752" version="1.1" xmlns="http://www.w3.org/2000/svg" xmlns:xlink="http://www.w3.org/1999/xlink" xml:space="preserve" xmlns:serif="http://www.serif.com/" style="fill-rule:evenodd;clip-rule:evenodd;stroke-linejoin:round;stroke-miterlimit:2;">
    <g transform="matrix(1.54334,0,0,1.54334,-204.299,-204.303)">
        <path d="M266.55,505.99C261.917,504.252 256.749,506.588 254.991,511.213L235.815,561.908C232.694,558.04 229.862,553.951 227.338,549.67C224.663,545.158 219.335,542.955 214.256,544.263C208.546,545.736 202.748,546.838 196.897,547.568L214.737,500.408L214.741,500.408C216.491,495.775 214.159,490.6 209.527,488.846C204.894,487.092 199.718,489.428 197.965,494.061L170.68,566.182L183.551,566.284C193.906,566.303 204.231,565.1 214.305,562.702C219.551,571.034 225.953,578.573 233.325,585.097L243.043,593.522L271.766,517.553C273.516,512.921 271.184,507.749 266.552,505.991L266.55,505.99Z" style="fill-rule:nonzero;"/>
        <path d="M326.22,487.37C321.587,489.124 319.255,494.3 321.005,498.932L343.407,558.166L343.407,558.17C337.548,557.439 331.743,556.334 326.024,554.861C320.942,553.561 315.61,555.779 312.954,560.303C310.443,564.576 307.618,568.654 304.505,572.514L293.778,544.147L293.774,544.143C292.934,541.916 291.247,540.115 289.079,539.135C286.911,538.154 284.442,538.08 282.215,538.92C279.989,539.76 278.188,541.451 277.212,543.623C276.231,545.791 276.157,548.26 277.001,550.487L297.278,604.132L306.996,595.702C314.371,589.182 320.773,581.64 326.008,573.307C336.09,575.655 346.406,576.854 356.758,576.889L369.629,576.787L337.781,492.584C336.028,487.951 330.852,485.615 326.219,487.369L326.22,487.37Z" style="fill-rule:nonzero;"/>
        <path d="M171.9,430.43C173.806,435.239 177.634,439.036 182.459,440.903C185.936,442.259 188.943,444.594 191.119,447.626C193.295,450.657 194.545,454.255 194.713,457.985C194.936,463.184 197.319,468.059 201.287,471.426C205.26,474.793 210.455,476.348 215.623,475.715C219.322,475.277 223.065,475.918 226.408,477.555C229.748,479.195 232.545,481.765 234.459,484.957C237.115,489.441 241.522,492.609 246.611,493.695C251.705,494.785 257.021,493.695 261.275,490.691C263.904,488.836 266.955,487.676 270.146,487.312C273.33,487.672 276.365,488.828 278.986,490.668C283.263,493.691 288.611,494.785 293.736,493.691C298.814,492.598 303.201,489.426 305.838,484.949C307.35,482.375 309.463,480.203 311.994,478.617C315.74,476.187 320.221,475.156 324.65,475.711C329.822,476.348 335.025,474.797 339.002,471.426C342.975,468.059 345.362,463.184 345.58,457.977C345.733,454.246 346.971,450.637 349.147,447.606C351.326,444.571 354.342,442.239 357.83,440.903C362.678,439.008 366.514,435.176 368.42,430.333C370.323,425.485 370.119,420.067 367.858,415.38C366.545,412.712 365.881,409.77 365.916,406.794C365.994,402.302 367.635,397.977 370.557,394.564C373.936,390.615 375.514,385.431 374.905,380.263C374.299,375.099 371.561,370.423 367.354,367.365C364.326,365.181 362.01,362.158 360.678,358.669C359.35,355.181 359.073,351.38 359.877,347.735C360.987,342.646 359.92,337.325 356.936,333.055C353.948,328.786 349.315,325.962 344.151,325.259C340.459,324.759 336.991,323.192 334.174,320.755C331.358,318.313 329.315,315.106 328.295,311.52C326.881,306.512 323.44,302.325 318.799,299.973C314.163,297.618 308.748,297.313 303.873,299.133C301.072,300.176 298.069,300.555 295.096,300.247C290.612,299.754 286.448,297.704 283.33,294.45C279.873,290.852 275.096,288.825 270.107,288.833C265.119,288.844 260.353,290.891 256.912,294.504C253.814,297.719 249.689,299.747 245.252,300.239C242.275,300.559 239.268,300.188 236.463,299.149C231.592,297.317 226.178,297.61 221.529,299.954C216.88,302.298 213.427,306.477 212.002,311.481C210.99,315.078 208.943,318.301 206.123,320.75C203.298,323.199 199.822,324.766 196.115,325.262C190.958,325.969 186.329,328.797 183.349,333.063C180.368,337.328 179.302,342.649 180.411,347.735C181.216,351.375 180.938,355.172 179.61,358.661C178.286,362.145 175.97,365.169 172.95,367.356C168.735,370.411 165.989,375.087 165.372,380.254C164.759,385.422 166.333,390.609 169.712,394.566C172.149,397.398 173.708,400.882 174.188,404.586C174.669,408.293 174.052,412.059 172.415,415.418C170.161,420.129 169.97,425.57 171.899,430.43L171.9,430.43ZM183.474,381.883C188.173,378.496 192.001,374.043 194.65,368.891C198.627,361.196 199.787,352.348 197.931,343.887C197.845,343.504 197.978,343.203 198.494,343.043L198.49,343.043C204.24,342.266 209.724,340.16 214.517,336.895C215.724,336.067 216.884,335.168 217.982,334.203C222.4,330.332 225.837,325.477 228.021,320.023C228.353,319.191 228.665,318.352 228.935,317.496C229.067,317.07 229.153,316.621 229.302,316.203C229.548,315.508 230.657,316.125 231.071,316.27C231.899,316.555 232.735,316.809 233.583,317.035L233.579,317.035C236.942,317.938 240.419,318.359 243.899,318.281C244.993,318.258 246.083,318.191 247.169,318.07C255.938,317.02 264.11,313.094 270.415,306.906C275.426,312.121 281.856,315.758 288.907,317.367C295.961,318.973 303.333,318.481 310.11,315.949C310.797,315.676 311.008,316.184 311.02,316.375L311.02,316.371C312.887,322.953 316.539,328.891 321.567,333.531C326.594,338.172 332.809,341.332 339.52,342.664C339.926,342.746 340.332,342.816 340.742,342.887C341.309,342.98 342.571,342.941 342.364,343.848C340.805,350.906 341.34,358.266 343.907,365.024C346.473,371.781 350.961,377.641 356.813,381.883L356.938,382.883C351.293,389.484 348.125,397.848 347.977,406.535C347.895,412.32 349.18,418.043 351.727,423.242C351.84,423.589 351.695,423.972 351.383,424.16C343.27,427.3 336.508,433.179 332.274,440.781C329.891,445.066 328.387,449.784 327.848,454.664C327.754,455.535 327.59,457.89 327.59,457.89C327.59,457.89 325.754,457.789 325.2,457.746L325.2,457.742C317.141,457.117 309.102,459.148 302.305,463.519C297.383,466.628 293.285,470.875 290.348,475.898L290.086,476.394L289.34,476.019L289.34,476.015C283.879,472.175 277.485,469.875 270.828,469.359L270.148,469.308L269.469,469.359L269.465,469.359C262.804,469.871 256.406,472.168 250.945,476.015C250.796,476.156 250.589,476.218 250.386,476.187C250.183,476.156 250.007,476.031 249.909,475.851C246.976,470.863 242.902,466.648 238.018,463.542C230.729,458.851 222.026,456.859 213.42,457.909C212.987,457.929 212.686,457.769 212.635,457.28C212.417,451.484 210.819,445.819 207.975,440.76C207.272,439.491 206.491,438.26 205.643,437.081C202.233,432.35 197.76,428.491 192.581,425.811C191.87,425.444 191.136,425.115 190.401,424.799C190.03,424.639 189.655,424.483 189.284,424.326C188.995,424.205 188.515,424.112 188.413,423.772L188.409,423.772C188.37,423.6 188.409,423.416 188.523,423.28C188.62,423.115 188.706,422.944 188.784,422.772C188.964,422.393 189.136,422.01 189.3,421.623C189.628,420.854 189.933,420.076 190.21,419.287L190.21,419.284C190.761,417.713 191.206,416.104 191.538,414.471C191.87,412.827 192.093,411.162 192.202,409.487C192.269,408.491 192.292,407.494 192.28,406.498C192.14,397.807 188.96,389.439 183.292,382.85C183.183,382.698 183.14,382.51 183.171,382.327C183.206,382.143 183.315,381.983 183.472,381.882L183.474,381.883Z" style="fill-rule:nonzero;"/>
        <path d="M512.46,338.78L392.84,338.78C387.887,338.78 383.871,342.796 383.871,347.749C383.871,352.706 387.887,356.721 392.84,356.721L512.46,356.721C517.417,356.721 521.433,352.706 521.433,347.749C521.433,342.796 517.417,338.78 512.46,338.78Z" style="fill-rule:nonzero;"/>
        <path d="M512.46,412.55L402.39,412.55C397.433,412.55 393.417,416.566 393.417,421.519C393.417,426.476 397.433,430.491 402.39,430.491L512.46,430.491C517.417,430.491 521.433,426.476 521.433,421.519C521.433,416.566 517.417,412.55 512.46,412.55Z" style="fill-rule:nonzero;"/>
        <path d="M582.68,248.27C582.207,246.34 581.086,244.629 579.508,243.422C578.918,242.657 578.422,241.864 577.75,241.141L503.004,159.153C496.465,151.962 487.199,147.868 477.481,147.876L307.061,147.876L307.065,147.876C294.889,147.892 283.213,152.732 274.604,161.341C265.995,169.951 261.151,181.622 261.139,193.798L261.139,261.966C261.139,266.919 265.155,270.935 270.108,270.935C275.061,270.935 279.077,266.919 279.077,261.966L279.077,193.798C279.085,186.38 282.038,179.267 287.284,174.021C292.53,168.775 299.643,165.826 307.065,165.814L477.485,165.814L477.481,165.814C482.141,165.806 486.59,167.767 489.723,171.216L553.766,241.462L520.688,241.458C513.278,241.451 506.172,238.501 500.93,233.263C495.692,228.021 492.742,220.915 492.739,213.505L492.739,195.665C492.739,190.712 488.723,186.696 483.77,186.696C478.813,186.696 474.797,190.712 474.797,195.665L474.797,213.505C474.813,225.669 479.653,237.337 488.254,245.939C496.856,254.545 508.524,259.384 520.688,259.4L568.012,259.4C568.539,261.017 568.813,262.709 568.821,264.408L568.821,482.038C568.813,489.421 565.879,496.495 560.66,501.714C555.442,506.937 548.363,509.87 540.98,509.878L376.45,509.878C371.497,509.878 367.482,513.894 367.482,518.847C367.482,523.8 371.497,527.82 376.45,527.82L540.98,527.82C553.121,527.804 564.753,522.976 573.335,514.394C581.917,505.812 586.745,494.175 586.761,482.039L586.761,264.409C586.746,258.776 585.343,253.237 582.679,248.272L582.68,248.27Z" style="fill-rule:nonzero;"/>
    </g>
</svg>
