<svg width="100%" height="100%" viewBox="0 0 752 752" version="1.1" xmlns="http://www.w3.org/2000/svg" xmlns:xlink="http://www.w3.org/1999/xlink" xml:space="preserve" xmlns:serif="http://www.serif.com/" style="fill-rule:evenodd;clip-rule:evenodd;stroke-linejoin:round;stroke-miterlimit:2;">
    <g id="_-000000ff" serif:id="#000000ff" transform="matrix(1.94637,0,0,1.94637,-355.865,-355.835)">
        <path d="M191.37,187.14C193.16,186.51 195.09,186.62 196.95,186.57C220.01,186.68 243.07,186.51 266.13,186.65C270.49,186.49 274.01,190.63 273.66,194.87C273.69,218.29 273.67,241.71 273.67,265.12C274.1,269.47 270.56,273.75 266.08,273.62C242.71,273.75 219.34,273.61 195.97,273.69C193.37,273.74 190.5,273.36 188.69,271.29C186.73,269.41 186.53,266.55 186.55,264C186.61,240.96 186.53,217.92 186.58,194.89C186.39,191.62 188.25,188.31 191.37,187.14Z" style="fill-rule:nonzero;"/>
        <path d="M320.46,200.52C321.82,199.8 323.42,199.94 324.91,199.85C402.96,199.88 481.02,199.87 559.08,199.86C561.46,199.71 564.48,200.36 565.16,203.04C565.67,207.01 565.58,211.07 565.26,215.05C564.98,218.04 561.67,219.06 559.11,218.82C480.69,218.78 402.27,218.82 323.84,218.79C321.65,218.93 319.07,218.01 318.48,215.66C317.92,212.11 318.15,208.48 318.23,204.9C318.19,203.18 318.86,201.36 320.46,200.52Z" style="fill-rule:nonzero;"/>
        <path d="M321.45,241.71C324.95,241.18 328.51,241.54 332.04,241.47C387.37,241.48 442.7,241.45 498.02,241.48C500.29,241.29 502.87,242.58 503.18,245.03C503.58,248.71 503.49,252.44 503.27,256.13C503.27,258.8 500.6,260.57 498.11,260.32C448.72,260.36 399.33,260.32 349.95,260.33C340.62,260.21 331.28,260.57 321.97,260.18C317.53,259.59 318.14,254.29 318.13,251.02C318.27,247.82 317.36,242.8 321.45,241.71Z" style="fill-rule:nonzero;"/>
        <path d="M192.4,332.72C194.92,332.3 197.49,332.46 200.03,332.45C222.02,332.52 244.01,332.4 265.99,332.5C270.44,332.31 274.06,336.51 273.67,340.85C273.65,364.57 273.75,388.3 273.62,412.01C273.74,416.49 269.42,420 265.08,419.54C241.38,419.49 217.67,419.61 193.97,419.48C189.61,419.54 186.17,415.35 186.58,411.1C186.56,387.72 186.56,364.34 186.58,340.96C186.28,337.28 188.67,333.45 192.4,332.72Z" style="fill-rule:nonzero;"/>
        <path d="M320.41,346.43C321.5,345.95 322.65,345.74 323.87,345.8L551.99,345.8C555.31,345.84 558.65,345.57 561.96,345.98C563.82,346.27 565.27,348.06 565.32,349.93C565.5,353.89 565.77,357.94 565.05,361.87C564.16,364.3 561.38,364.8 559.11,364.68C482.75,364.65 406.39,364.66 330.03,364.68C326.95,364.56 323.76,365.07 320.77,364.18C317.29,362.51 318.36,358.07 318.13,354.98C318.35,352.11 317.43,348.18 320.41,346.43Z" style="fill-rule:nonzero;"/>
        <path d="M321.4,387.59C334.55,386.96 347.77,387.52 360.95,387.33C406.66,387.34 452.38,387.31 498.09,387.35C500.36,387.17 502.94,388.53 503.2,390.99C503.56,394.67 503.51,398.4 503.26,402.09C503.22,404.73 500.56,406.44 498.1,406.18C440.04,406.22 381.97,406.19 323.91,406.2C321.6,406.41 318.83,405.34 318.42,402.8C317.97,399.21 318.11,395.57 318.26,391.97C318.2,390.03 319.46,388.05 321.4,387.59Z" style="fill-rule:nonzero;"/>
        <path d="M192.35,478.6C215.19,477.95 238.1,478.55 260.97,478.31C264.48,478.41 268.71,477.71 271.4,480.55C273.45,482.4 273.73,485.3 273.7,487.89C273.66,510.63 273.67,533.38 273.69,556.12C273.74,558.68 273.32,561.49 271.3,563.28C269.17,565.54 265.87,565.43 263.01,565.43C239.97,565.31 216.93,565.51 193.9,565.34C189.6,565.38 186.21,561.25 186.58,557.07C186.55,533.69 186.57,510.31 186.57,486.94C186.26,483.24 188.6,479.36 192.35,478.6Z" style="fill-rule:nonzero;"/>
        <path d="M320.37,492.33C321.48,491.81 322.67,491.59 323.92,491.66C402.65,491.68 481.38,491.65 560.11,491.68C562.29,491.51 564.79,492.69 565.2,495.03C565.63,499 565.61,503.05 565.22,507.02C564.86,509.5 562.22,510.7 559.95,510.53C481.25,510.54 402.54,510.53 323.84,510.53C320.68,511.01 317.76,508.39 318.21,505.16C318.67,501 316.57,495.32 320.37,492.33Z" style="fill-rule:nonzero;"/>
        <path d="M321.39,533.48C333.91,532.81 346.51,533.4 359.06,533.2C405.41,533.22 451.77,533.17 498.13,533.22C500.43,533.04 503.02,534.49 503.21,536.99C503.52,540.96 503.63,545.01 503.1,548.97C502.42,551.6 499.46,552.27 497.09,552.14C439.37,552.11 381.64,552.16 323.92,552.12C321.65,552.27 318.96,551.29 318.45,548.83C317.95,545.22 318.13,541.55 318.25,537.92C318.18,535.95 319.43,533.95 321.39,533.48Z" style="fill-rule:nonzero;"/>
    </g>
</svg>
