<svg width="100%" height="100%" viewBox="0 0 300 300" version="1.1" xmlns="http://www.w3.org/2000/svg" xmlns:xlink="http://www.w3.org/1999/xlink" xml:space="preserve" xmlns:serif="http://www.serif.com/" style="fill-rule:evenodd;clip-rule:evenodd;stroke-linejoin:round;stroke-miterlimit:2;">
    <g transform="matrix(1.17967,0,0,1.17967,-27.607,-19.0125)">
        <g>
            <g transform="matrix(0.518771,0,0,0.535739,-44.5036,-57.9188)">
                <path d="M538.798,368.6L509.747,368.6C528.431,355.19 540.642,333.268 540.642,308.479C540.642,267.69 507.435,234.483 466.646,234.483L285.356,234.479C244.567,234.479 211.36,267.686 211.36,308.475C211.36,333.264 223.571,355.186 242.255,368.596L213.208,368.6C172.419,368.6 139.212,401.807 139.212,442.596C139.212,483.385 172.419,516.592 213.208,516.592L538.798,516.592C579.587,516.592 612.794,483.385 612.794,442.596C612.798,401.807 579.591,368.6 538.798,368.6ZM538.79,382.475C560.989,382.475 580.415,394.592 590.774,412.537L461.184,412.537C455.821,400.514 447.309,390.154 436.672,382.475L538.79,382.475ZM466.645,368.6L328.455,368.6C339.092,361.014 347.603,350.655 352.967,338.538L518.717,338.444C508.264,356.483 488.842,368.6 466.643,368.6L466.645,368.6ZM321.335,458.784L285.355,458.784C286.558,453.604 287.207,448.147 287.207,442.596C287.207,437.045 286.558,431.588 285.355,426.408L321.429,426.408C320.226,431.588 319.577,437.045 319.577,442.596C319.577,448.147 320.226,453.604 321.335,458.784ZM280.823,412.538C275.46,400.515 266.948,390.155 256.311,382.476L350.471,382.476C339.834,390.062 331.323,400.421 325.959,412.538L280.823,412.538ZM524.553,292.288C526.034,297.468 526.772,302.925 526.772,308.476C526.772,314.117 525.94,319.484 524.553,324.664L357.503,324.66C358.706,319.48 359.355,314.023 359.355,308.472C359.355,302.921 358.706,297.464 357.503,292.284L487.927,292.284L524.553,292.288ZM466.651,248.35C488.85,248.35 508.276,260.467 518.635,278.412L352.976,278.412C347.613,266.389 339.101,256.029 328.464,248.35L466.651,248.35ZM225.241,308.475C225.241,275.362 252.249,248.354 285.362,248.354C318.475,248.354 345.483,275.362 345.483,308.475C345.483,341.588 318.475,368.596 285.362,368.596C252.249,368.596 225.241,341.588 225.241,308.475ZM213.214,502.715C180.101,502.715 153.093,475.707 153.093,442.594C153.093,409.481 180.101,382.473 213.214,382.473C246.327,382.473 273.335,409.481 273.335,442.594C273.339,475.703 246.327,502.715 213.214,502.715ZM256.319,502.715C266.956,495.129 275.467,484.77 280.831,472.653L326.061,472.559C331.424,484.676 339.936,495.036 350.573,502.621L256.319,502.621L256.319,502.715ZM393.579,502.715C360.466,502.715 333.458,475.707 333.458,442.594C333.458,409.481 360.466,382.473 393.579,382.473C426.692,382.473 453.7,409.481 453.7,442.594C453.704,475.703 426.692,502.715 393.579,502.715ZM538.807,502.715L436.689,502.715C447.326,495.129 455.837,484.77 461.201,472.653L590.791,472.653C580.432,490.598 561.006,502.715 538.807,502.715ZM596.609,458.777L465.729,458.777C466.932,453.597 467.581,448.14 467.581,442.589C467.581,437.038 466.932,431.581 465.729,426.401L596.609,426.401C598.089,431.581 598.828,437.038 598.828,442.589C598.828,448.23 597.996,453.597 596.609,458.777Z" style="fill-rule:nonzero;"/>
            </g>
            <g transform="matrix(0.518771,0,0,0.535739,-44.5036,-57.9188)">
                <path d="M393.57,409.48C375.258,409.48 360.457,424.371 360.457,442.593C360.457,460.815 375.348,475.706 393.57,475.706C411.793,475.706 426.683,460.815 426.683,442.593C426.683,424.374 411.886,409.48 393.57,409.48ZM393.57,461.835C382.933,461.835 374.332,453.233 374.332,442.597C374.332,431.96 382.934,423.359 393.57,423.359C404.206,423.359 412.808,431.961 412.808,442.597C412.812,453.23 404.206,461.835 393.57,461.835Z" style="fill-rule:nonzero;"/>
            </g>
            <g transform="matrix(0.518771,0,0,0.535739,-44.5036,-57.9188)">
                <path d="M213.21,409.48C194.898,409.48 180.097,424.371 180.097,442.593C180.097,460.815 194.988,475.706 213.21,475.706C231.433,475.706 246.323,460.815 246.323,442.593C246.323,424.374 231.526,409.48 213.21,409.48ZM213.21,461.835C202.573,461.835 193.972,453.233 193.972,442.597C193.972,431.96 202.574,423.359 213.21,423.359C223.846,423.359 232.448,431.961 232.448,442.597C232.448,453.23 223.846,461.835 213.21,461.835Z" style="fill-rule:nonzero;"/>
            </g>
            <g transform="matrix(0.518771,0,0,0.535739,-44.5036,-57.9188)">
                <path d="M285.36,341.59C303.672,341.59 318.473,326.699 318.473,308.477C318.473,290.254 303.582,275.364 285.36,275.364C267.137,275.364 252.247,290.255 252.247,308.477C252.247,326.696 267.044,341.59 285.36,341.59ZM285.36,289.235C295.997,289.235 304.598,297.837 304.598,308.473C304.598,319.11 295.996,327.711 285.36,327.711C274.724,327.711 266.122,319.109 266.122,308.473C266.122,297.84 274.724,289.235 285.36,289.235Z" style="fill-rule:nonzero;"/>
            </g>
        </g>
    </g>
</svg>
