<svg width="100%" height="100%" viewBox="0 0 752 752" version="1.1" xmlns="http://www.w3.org/2000/svg" xmlns:xlink="http://www.w3.org/1999/xlink" xml:space="preserve" xmlns:serif="http://www.serif.com/" style="fill-rule:evenodd;clip-rule:evenodd;stroke-linejoin:round;stroke-miterlimit:2;">
    <g id="_-000000ff" serif:id="#000000ff" transform="matrix(1.66567,0,0,1.66567,-250.3,-250.28)">
        <path d="M245.7,258.69C260.53,239.85 284.05,228.25 308.04,228.01C350.7,227.98 393.37,228.01 436.03,228C451.11,228.23 466.61,226.72 481.18,231.57C509.16,239.88 531.41,264.42 537.11,293.03C542.23,316.83 535.71,342.65 520.16,361.34C539.07,362.2 557.59,369.82 571.52,382.66C586.82,396.52 596.26,416.44 597.88,436.96C598.75,452.46 595.44,468.23 587.86,481.83C573.98,507.62 545.29,524.43 516,524C422.68,524 329.35,523.99 236.02,524C222.13,524.09 208.23,520.59 196.07,513.85C180.48,505.3 167.88,491.48 160.81,475.17C154.08,459.87 152.28,442.48 155.68,426.12C159,409.91 167.43,394.79 179.48,383.44C191.88,371.66 208.09,363.98 225.06,361.86C232.2,360.87 239.42,361.28 246.6,361.2C236.39,348.71 229.84,333.21 228.37,317.12C226.3,296.37 232.65,274.95 245.7,258.69M301.31,243.3C283.81,245.37 267.37,254.78 256.67,268.76C246.57,281.76 241.59,298.62 243.04,315.03C244.29,330.36 251.1,345.16 261.92,356.09C272.74,367.16 287.53,374.22 302.94,375.68C318.68,377.27 334.91,372.95 347.8,363.8C359.74,355.42 368.75,342.99 373.02,329.05C377.36,315.16 376.92,299.85 371.83,286.22C366.65,272.16 356.55,259.99 343.69,252.31C331.09,244.7 315.92,241.46 301.31,243.3M356.11,242.79C375.47,256.29 388.35,278.48 390.46,301.99C422.32,302 454.19,302 486.06,301.99C489.84,301.6 493.68,304.24 494.28,308.07C495.22,312.38 491.51,316.91 487.08,316.77C454.88,316.83 422.68,316.8 390.48,316.78C388.88,333.41 382.15,349.47 371.28,362.17C382.79,360.47 394.45,361.46 406.04,361.2C437.06,361.21 468.09,361.18 499.12,361.22C504.37,356.97 508.97,351.97 512.81,346.41C479.55,346.36 446.29,346.45 413.04,346.37C409.04,346.55 405.49,342.96 405.59,338.99C405.48,335.05 409.02,331.46 412.99,331.63C448.74,331.55 484.49,331.64 520.25,331.59C527.14,312.09 524.38,289.52 512.75,272.39C486.84,272.38 460.91,272.45 435,272.36C431.08,272.44 427.68,268.86 427.78,264.98C427.7,261.11 431.1,257.56 435,257.64C456.39,257.52 477.78,257.66 499.17,257.58C487.61,248.24 472.89,242.87 458,242.81C424.04,242.78 390.07,242.82 356.11,242.79M225.49,376.73C207.54,379.35 190.93,389.71 180.66,404.65C171.52,417.76 167.36,434.23 169.24,450.1C170.96,465.67 178.44,480.5 189.9,491.18C200.75,501.39 215.13,507.77 229.99,508.96C246.12,510.35 262.68,505.51 275.57,495.7C286.95,487.15 295.42,474.82 299.36,461.14C303.58,446.74 302.7,430.92 296.91,417.07C291.23,403.26 280.72,391.51 267.63,384.31C254.92,377.24 239.86,374.54 225.49,376.73M377.27,376.27C361.04,377.72 345.47,385.39 334.47,397.41C323.08,409.64 316.64,426.29 316.8,442.99C316.86,458.19 322.36,473.29 332.07,484.98C342.07,497.15 356.52,505.55 372.05,508.19C387.87,511.03 404.67,507.75 418.32,499.29C431.13,491.46 441.1,479.13 446.11,464.98C450.57,452.58 451.21,438.83 447.9,426.07C444.07,410.88 434.63,397.2 421.82,388.2C409.01,379.09 392.91,374.79 377.27,376.27M430.1,375.99C436.07,380.23 441.47,385.22 446.2,390.8C474.49,390.81 502.79,390.78 531.08,390.81C535.08,390.52 538.79,394 538.79,398C539.02,402.2 535.15,405.89 530.99,405.59C505.95,405.61 480.91,405.59 455.87,405.6C464,421.43 466.72,439.9 463.43,457.39C490.97,457.42 518.52,457.37 546.07,457.42C549.44,457.28 552.64,459.74 553.39,463.03C554.66,467.53 550.74,472.44 546.07,472.17C517.11,472.24 488.14,472.19 459.18,472.2C453.3,486.99 443.1,500 430.1,509.21C459.04,509.19 487.99,509.22 516.93,509.19C527.34,509.16 537.66,506.53 546.93,501.84C534.28,501.72 521.63,501.89 508.98,501.76C505.34,501.79 502.07,498.69 501.81,495.08C501.31,491 504.8,486.97 508.93,487.04C527.99,486.94 547.05,487.02 566.11,487.01C577,474.95 583.19,458.86 583.23,442.61C553.78,442.58 524.33,442.62 494.88,442.59C490.69,442.94 486.75,439.24 486.99,435.01C486.96,430.85 490.9,427.4 495.02,427.8C523.84,427.79 552.67,427.82 581.5,427.79C576.68,406.3 560.57,387.8 539.88,380.23C532.6,377.5 524.83,376.05 517.06,376C488.07,375.99 459.08,376.01 430.1,375.99M297.28,389.82C302.15,395.58 306.23,401.99 309.4,408.83C312.36,402.38 316.16,396.33 320.6,390.8C312.82,390.79 305,391.07 297.28,389.82M309.4,476.37C303.36,489.46 293.85,500.86 282.1,509.2C300.31,509.2 318.52,509.2 336.73,509.21C324.97,500.87 315.43,489.46 309.4,476.37Z" style="fill-rule:nonzero;"/>
        <path d="M299.36,258.57C311.57,256.15 324.71,258.27 335.41,264.67C339.18,266.92 339.84,272.69 336.78,275.8C334.37,278.58 330.07,278.86 327.06,276.91C315.91,270.68 301.53,270.96 290.59,277.53C277.47,285.05 270.07,301.14 272.99,316C275.52,331.25 288.61,343.94 303.94,345.98C312.03,347.26 320.44,345.59 327.59,341.64C330.75,339.66 335.24,340.6 337.34,343.68C339.82,346.92 338.85,352.15 335.29,354.21C323.3,361.29 308.35,363.08 295,359.15C281.8,355.42 270.31,346.15 263.83,334.07C256.91,321.46 255.66,305.94 260.44,292.39C266.21,275.27 281.61,261.91 299.36,258.57Z" style="fill-rule:nonzero;"/>
        <path d="M344.37,280.34C347.4,278.7 351.56,279.61 353.58,282.43C364.17,299.42 363.56,322.62 351.84,338.9C348.5,342.97 341.23,341.6 339.5,336.66C337.55,332.33 341.26,328.63 342.88,324.92C348.15,314.13 347.21,301.01 341.37,290.64C339.17,287.15 340.66,282.11 344.37,280.34Z" style="fill-rule:nonzero;"/>
        <path d="M307.33,287.48C318.98,285.65 330.55,295.45 331.47,307.07C332.95,318.38 324.29,329.71 313.01,331.3C302.61,333.25 291.54,326.56 288.36,316.49C287.18,312.58 286.09,307.56 289.24,304.28C292.11,301.1 297.69,301.3 300.31,304.69C302.73,307.34 301.27,311.56 303.75,314.18C306.35,317.46 311.76,317.68 314.63,314.64C317.67,311.77 317.46,306.39 314.21,303.77C311.41,301.14 306.74,302.85 304.15,299.82C300.16,296.17 302.08,288.75 307.33,287.48Z" style="fill-rule:nonzero;"/>
        <path d="M225.47,391.75C238.06,389.29 251.7,391.6 262.52,398.58C267.04,401.82 265.64,409.71 260.33,411.29C255.36,413.03 251.43,408.39 246.84,407.4C230.42,401.7 210.83,409.58 202.85,424.98C194.24,440.2 198.56,461.1 212.5,471.65C221.98,479.24 235.3,481.62 246.82,477.79C250.08,476.85 252.91,474.91 256.06,473.72C259.86,472.57 264.17,475.22 265.05,479.06C265.92,482.22 264.35,485.78 261.47,487.33C249.34,494.49 234.22,496.32 220.72,492.28C206.66,488.2 194.6,477.84 188.46,464.55C182.06,451.06 181.96,434.8 188.18,421.23C194.89,406.14 209.24,394.79 225.47,391.75Z" style="fill-rule:nonzero;"/>
        <path d="M373.48,391.75C385.85,389.33 399.19,391.54 409.93,398.2C414.47,401.12 413.73,408.77 408.76,410.84C405.69,412.52 402.39,410.91 399.64,409.4C388.99,403.97 375.66,404.42 365.29,410.32C356.1,415.42 349.32,424.63 347.2,434.93C344.09,448.81 349.94,464.13 361.5,472.41C372.3,480.5 387.69,481.94 399.72,475.74C402.01,474.65 404.35,472.99 407.03,473.56C411.32,474.12 414.35,478.91 412.95,483.02C412,486.53 408.38,488.02 405.42,489.47C391.93,495.87 375.67,496.03 362.09,489.82C348.96,483.97 338.54,472.4 334.14,458.71C329.29,444.19 331.39,427.57 339.7,414.72C347.2,402.87 359.7,394.35 373.48,391.75Z" style="fill-rule:nonzero;"/>
        <path d="M270.38,413.53C273.57,411.8 277.95,412.92 279.86,416.02C288.75,430.87 289.58,450.17 281.71,465.64C279.78,469.3 277.81,474.24 272.98,474.5C267.49,475.2 262.95,468.6 265.83,463.79C269.85,457.26 272.6,449.76 272.4,442C272.3,435.56 270.33,429.28 267.29,423.65C265.18,420.17 266.75,415.26 270.38,413.53Z" style="fill-rule:nonzero;"/>
        <path d="M418.41,413.51C421.39,411.93 425.44,412.79 427.47,415.5C438.14,432.44 437.58,455.65 425.93,471.96C422.61,476.24 415.05,474.8 413.42,469.67C411.78,465.86 414.67,462.46 416.31,459.26C422.04,448.46 421.54,434.97 415.61,424.37C413.16,420.79 414.4,415.37 418.41,413.51Z" style="fill-rule:nonzero;"/>
        <path d="M232.21,421.11C241.53,418.48 251.78,424.81 255.6,433.38C259.22,441.08 257.81,450.76 252.18,457.13C246.65,463.66 237.13,466.44 228.96,463.83C219.36,461.1 212.27,451.13 213.35,441.13C214.18,435.56 221.89,433.17 225.74,437.26C228.99,439.96 227,445.07 230.16,447.83C233.26,451.16 239.26,450.51 241.61,446.62C244.15,443 242.45,437.41 238.34,435.8C235.56,434.91 232.12,435.36 230.05,432.91C226.56,429.54 227.75,423.03 232.21,421.11Z" style="fill-rule:nonzero;"/>
        <path d="M380.17,421.12C389.51,418.46 399.78,424.81 403.6,433.4C407.33,441.32 405.7,451.34 399.68,457.68C393.91,464.04 384.29,466.49 376.19,463.59C366.96,460.58 360.3,450.84 361.35,441.12C362.18,435.55 369.92,433.17 373.75,437.28C376.98,439.98 375,445.08 378.16,447.83C380.91,450.75 386.04,450.69 388.74,447.72C391.7,444.81 391.4,439.47 388.15,436.91C385.3,434.34 380.6,436.02 378.05,432.92C374.56,429.55 375.73,423.06 380.17,421.12Z" style="fill-rule:nonzero;"/>
    </g>
</svg>
