<svg width="100%" height="100%" viewBox="0 0 752 752" version="1.1" xmlns="http://www.w3.org/2000/svg" xmlns:xlink="http://www.w3.org/1999/xlink" xml:space="preserve" xmlns:serif="http://www.serif.com/" style="fill-rule:evenodd;clip-rule:evenodd;stroke-linejoin:round;stroke-miterlimit:2;">
    <g transform="matrix(1.66639,0,0,1.66639,-250.562,-250.167)">
        <path d="M586.27,224.93L478.77,162.418L376,221.613L273.23,162.418L165.73,224.93L165.73,349.48L268.5,408.679L268.5,527.069L376,589.108L483.5,527.069L483.5,408.679L586.27,349.48L586.27,224.93ZM571.118,227.77L478.77,280.813L385.946,227.77L478.77,174.258L571.118,227.77ZM375.998,458.88L283.65,405.364L375.998,351.848L468.346,405.364L375.998,458.88ZM381.209,236.3L473.557,289.816L473.557,396.366L381.209,343.323L381.209,236.3ZM370.791,343.33L278.443,396.846L278.443,289.816L370.791,236.3L370.791,343.33ZM366.053,227.78L273.233,280.823L180.885,227.78L273.233,174.268L366.053,227.78ZM176.143,236.307L268.491,289.823L268.491,396.373L176.143,343.33L176.143,236.307ZM278.443,414.377L370.791,467.893L370.791,574.443L278.443,520.927L278.443,414.377ZM381.213,574.447L381.213,467.887L473.561,414.371L473.561,520.921L381.213,574.447ZM483.503,396.857L483.503,289.827L575.851,236.311L575.851,342.861L483.503,396.857Z" style="fill-rule:nonzero;"/>
    </g>
</svg>
