<svg height='300px' width='300px'  fill="#000000" xmlns:x="http://ns.adobe.com/Extensibility/1.0/" xmlns:i="http://ns.adobe.com/AdobeIllustrator/10.0/" xmlns:graph="http://ns.adobe.com/Graphs/1.0/" xmlns="http://www.w3.org/2000/svg" xmlns:xlink="http://www.w3.org/1999/xlink" version="1.1" x="0px" y="0px" viewBox="0 0 70 70" style="enable-background:new 0 0 70 70;" xml:space="preserve"><metadata><?xpacket begin="&#65279;" id="W5M0MpCehiHzreSzNTczkc9d"?><x:xmpmeta xmlns:x="adobe:ns:meta/" x:xmptk="Adobe XMP Core 5.6-c145 79.163499, 2018/08/13-16:40:22        "></x:xmpmeta><?xpacket end="w"?></metadata><path d="M24.2104492,35c0-2.9882812-2.4311523-5.4199219-5.4194336-5.4199219c-2.9887695,0-5.4199219,2.4316406-5.4199219,5.4199219  s2.4311523,5.4199219,5.4199219,5.4199219C21.7792969,40.4199219,24.2104492,37.9882812,24.2104492,35z M15.3710938,35  c0-1.8857422,1.5341797-3.4199219,3.4199219-3.4199219c1.8852539,0,3.4194336,1.5341797,3.4194336,3.4199219  s-1.5341797,3.4199219-3.4194336,3.4199219C16.9052734,38.4199219,15.3710938,36.8857422,15.3710938,35z"></path><path d="M40.4194336,35c0-2.9882812-2.4311523-5.4199219-5.4194336-5.4199219S29.5805664,32.0117188,29.5805664,35  S32.0117188,40.4199219,35,40.4199219S40.4194336,37.9882812,40.4194336,35z M31.5805664,35  c0-1.8857422,1.5341797-3.4199219,3.4194336-3.4199219S38.4194336,33.1142578,38.4194336,35S36.8852539,38.4199219,35,38.4199219  S31.5805664,36.8857422,31.5805664,35z"></path><path d="M56.6289062,35c0-2.9882812-2.4311523-5.4199219-5.4199219-5.4199219c-2.9882812,0-5.4194336,2.4316406-5.4194336,5.4199219  s2.4311523,5.4199219,5.4194336,5.4199219C54.1977539,40.4199219,56.6289062,37.9882812,56.6289062,35z M47.7895508,35  c0-1.8857422,1.5341797-3.4199219,3.4194336-3.4199219c1.8857422,0,3.4199219,1.5341797,3.4199219,3.4199219  s-1.5341797,3.4199219-3.4199219,3.4199219C49.3237305,38.4199219,47.7895508,36.8857422,47.7895508,35z"></path><path d="M7.2421875,28.765625v-4.8837891c0-2.6650391,1.3515625-5.0947266,3.6157227-6.4990234  c0.4692383-0.2910156,0.6137695-0.9072266,0.3222656-1.3769531c-0.2910156-0.46875-0.9067383-0.6123047-1.3769531-0.3222656  c-2.855957,1.7714844-4.5610352,4.8369141-4.5610352,8.1982422v4.8837891c0,1.1591797-0.3969727,2.2978516-1.1176758,3.2070312  l-1.9082031,2.40625c-0.0181885,0.0229492-0.0223999,0.0511475-0.038269,0.0751953  c-0.0385132,0.0579834-0.0668335,0.1171875-0.0921021,0.1809082C2.062561,34.6936035,2.0418701,34.75,2.0300903,34.8110352  C2.0177612,34.8742676,2.015564,34.9355469,2.0155029,35c0.000061,0.0644531,0.0023193,0.1257324,0.0146484,0.1889648  C2.0418701,35.25,2.062561,35.3063965,2.0859375,35.3649902c0.0252075,0.0637207,0.0535278,0.1228027,0.092041,0.1809082  c0.0158691,0.0239258,0.0200806,0.0522461,0.0383301,0.0751953L4.125,38.0273438  c0.7202148,0.9091797,1.1171875,2.0478516,1.1171875,3.2070312v4.8837891c0,3.3613281,1.7050781,6.4267578,4.5610352,8.1982422  c0.1640625,0.1015625,0.3466797,0.1503906,0.5263672,0.1503906c0.3344727,0,0.6616211-0.1679688,0.8505859-0.4726562  c0.2915039-0.4697266,0.1469727-1.0859375-0.3222656-1.3769531c-2.2641602-1.4042969-3.6157227-3.8339844-3.6157227-6.4990234  V41.234375c0-1.609375-0.5507812-3.1894531-1.550293-4.4492188L4.2761841,35l1.4152222-1.7851562  C6.6914062,31.9550781,7.2421875,30.375,7.2421875,28.765625z"></path><path d="M67.8220215,35.5458984c0.0385132-0.0581055,0.0668335-0.1171875,0.092041-0.1809082  c0.0233765-0.0585938,0.0440674-0.1149902,0.0557861-0.1760254C67.9821777,35.1257324,67.984436,35.0644531,67.9844971,35  c-0.000061-0.0644531-0.0022583-0.1257324-0.0145874-0.1889648C67.9581299,34.75,67.937439,34.6936035,67.9140625,34.6350098  c-0.0252686-0.0637207-0.0535889-0.1229248-0.0921021-0.1809082c-0.0158691-0.0240479-0.0200806-0.0522461-0.038269-0.0751953  L65.875,31.9726562c-0.7202148-0.9091797-1.1171875-2.0478516-1.1171875-3.2070312v-4.8837891  c0-3.3613281-1.7050781-6.4267578-4.5610352-8.1982422c-0.4702148-0.2910156-1.0869141-0.1474609-1.3769531,0.3222656  c-0.2915039,0.4697266-0.1469727,1.0859375,0.3222656,1.3769531c2.2641602,1.4042969,3.6157227,3.8339844,3.6157227,6.4990234  v4.8837891c0,1.609375,0.5507812,3.1894531,1.550293,4.4492188L65.7238159,35l-1.4152222,1.7851562  c-1,1.2597656-1.5507812,2.8398438-1.5507812,4.4492188v4.8837891c0,2.6650391-1.3515625,5.0947266-3.6157227,6.4990234  c-0.4692383,0.2910156-0.6137695,0.9072266-0.3222656,1.3769531c0.1894531,0.3046875,0.5161133,0.4726562,0.8505859,0.4726562  c0.1796875,0,0.3623047-0.0488281,0.5263672-0.1503906c2.855957-1.7714844,4.5610352-4.8369141,4.5610352-8.1982422V41.234375  c0-1.1591797,0.3969727-2.2978516,1.1176758-3.2070312l1.9082031-2.40625  C67.8019409,35.5981445,67.8061523,35.5698242,67.8220215,35.5458984z"></path></svg>