<svg width="100%" height="100%" viewBox="0 0 512 512" version="1.1" xmlns="http://www.w3.org/2000/svg" xmlns:xlink="http://www.w3.org/1999/xlink" xml:space="preserve" xmlns:serif="http://www.serif.com/" style="fill-rule:evenodd;clip-rule:evenodd;stroke-linejoin:round;stroke-miterlimit:2;">
    <g transform="matrix(1.53113,0,0,1.53113,-135.948,-152.242)">
        <g id="_-000000ff" serif:id="#000000ff">
            <g>
                <path d="M103.36,112.33C106.56,111.8 109.82,112.04 113.05,112C210.39,112.01 307.73,111.98 405.07,112.01C411,111.82 416.73,115.43 419.47,120.63C422.53,126.47 421.64,134.22 416.9,138.91C413.85,142.12 409.51,144.13 405.05,143.99C305.65,144.01 206.25,144.01 106.85,143.99C99.9,144.19 93.18,139.18 91.33,132.49C88.47,123.85 94.57,114.08 103.36,112.33Z" style="fill-rule:nonzero;"/>
                <path d="M103.39,197.58C106.55,197.06 109.77,197.28 112.96,197.24C210.33,197.26 307.71,197.22 405.08,197.26C413.22,196.96 420.78,203.9 421.21,212.03C422.27,221.08 414.04,229.59 405.03,229.24C306.01,229.27 207,229.23 107.98,229.26C103.6,229.48 99.14,228.09 95.93,225.05C90.52,220.39 89.13,211.88 92.56,205.66C94.83,201.63 98.85,198.55 103.39,197.58Z" style="fill-rule:nonzero;"/>
                <path d="M325.39,276.36C325.55,267.92 333.62,260.73 341.99,261.29C350.15,261.43 357.3,268.82 357.27,276.98C357.43,293.07 357.28,309.16 357.34,325.24C373.25,325.27 389.16,325.22 405.07,325.26C413.2,324.96 420.76,331.87 421.2,339.99C422.29,349.06 414.04,357.6 405,357.24C389.11,357.28 373.22,357.23 357.33,357.25C357.27,373.51 357.45,389.77 357.25,406.03C357.11,415.12 347.91,422.63 338.97,421.07C331.55,420.05 325.36,413.24 325.38,405.67C325.25,389.53 325.37,373.39 325.33,357.25C309.22,357.22 293.12,357.31 277.01,357.21C268.89,357.27 261.52,350.14 261.39,342C260.61,333.3 268.43,325.22 277.07,325.27C293.15,325.2 309.24,325.28 325.32,325.24C325.38,308.95 325.24,292.65 325.39,276.36Z" style="fill-rule:nonzero;"/>
                <path d="M101.45,283.63C103.54,282.83 105.81,282.78 108.02,282.74C142.35,282.75 176.69,282.77 211.02,282.73C215.22,282.53 219.63,283.33 222.95,286.07C228.03,289.78 230.36,296.66 228.8,302.72C227.07,309.64 220.25,314.95 213.09,314.74C177.71,314.76 142.33,314.76 106.95,314.74C98.81,315.07 91.16,308.19 90.76,300.03C89.91,292.9 94.78,285.94 101.45,283.63Z" style="fill-rule:nonzero;"/>
                <path d="M103.32,368.34C104.84,368.04 106.39,368.01 107.92,367.99C143,368.02 178.07,367.98 213.14,368.01C221.33,367.74 228.86,374.77 229.23,382.95C230.15,391.9 222.02,400.3 213.1,399.99C177.69,400.01 142.28,400.01 106.87,399.99C99.89,400.2 93.15,395.16 91.32,388.44C88.49,379.83 94.57,370.1 103.32,368.34Z" style="fill-rule:nonzero;"/>
            </g>
        </g>
    </g>
</svg>
