<svg width="100%" height="100%" viewBox="0 0 752 752" version="1.1" xmlns="http://www.w3.org/2000/svg" xmlns:xlink="http://www.w3.org/1999/xlink" xml:space="preserve" xmlns:serif="http://www.serif.com/" style="fill-rule:evenodd;clip-rule:evenodd;stroke-linejoin:round;stroke-miterlimit:2;">
    <g transform="matrix(2.79397,0,0,2.79397,-674.625,-674.459)">
        <path d="M355.68,465.6C381.727,465.6 405.692,456.459 424.539,441.256L486.012,502.729C488.332,505.049 491.364,506.186 494.395,506.186C497.426,506.186 500.457,505.049 502.778,502.729C507.418,498.088 507.418,490.604 502.778,486.01L441.305,424.541C456.508,405.693 465.649,381.729 465.649,355.682C465.649,295.065 416.348,245.762 355.729,245.762C295.11,245.762 245.809,295.063 245.809,355.682C245.805,416.303 295.059,465.602 355.679,465.602L355.68,465.6ZM355.68,269.44C403.227,269.44 441.965,308.131 441.965,355.725C441.965,403.319 403.274,442.01 355.68,442.01C308.086,442.014 269.442,403.276 269.442,355.678C269.442,308.084 308.133,269.44 355.68,269.44Z" style="fill-rule:nonzero;"/>
    </g>
</svg>