<svg width="100%" height="100%" viewBox="0 0 100 100" version="1.1" xmlns="http://www.w3.org/2000/svg" xmlns:xlink="http://www.w3.org/1999/xlink" xml:space="preserve" xmlns:serif="http://www.serif.com/" style="fill-rule:evenodd;clip-rule:evenodd;stroke-linejoin:round;stroke-miterlimit:2;">
    <g transform="matrix(1.15127,0,0,1.15127,-7.56337,-7.48773)">
        <path d="M23,21.6L23,13.5L19,13.5L19,21.6C19.7,21.5 20.3,21.5 21,21.5C21.7,21.5 22.3,21.6 23,21.6Z" style="fill-rule:nonzero;"/>
        <path d="M19,51.4L19,85.5L23,85.5L23,51.4C22.3,51.5 21.7,51.5 21,51.5C20.3,51.5 19.7,51.4 19,51.4Z" style="fill-rule:nonzero;"/>
        <path d="M23,23.7C22.3,23.6 21.7,23.5 21,23.5C20.3,23.5 19.7,23.6 19,23.7C12.8,24.7 8,30 8,36.5C8,43 12.8,48.4 19,49.3C19.7,49.4 20.3,49.5 21,49.5C21.7,49.5 22.3,49.4 23,49.3C29.2,48.3 34,43 34,36.5C34,30 29.2,24.6 23,23.7ZM23,45.3C22.4,45.4 21.7,45.5 21,45.5C20.3,45.5 19.6,45.4 19,45.3C15,44.4 12,40.8 12,36.5C12,32.2 15,28.6 19,27.7C19.6,27.6 20.3,27.5 21,27.5C21.7,27.5 22.4,27.6 23,27.7C27,28.6 30,32.2 30,36.5C30,40.8 27,44.4 23,45.3Z" style="fill-rule:nonzero;"/>
        <path d="M48,77.4L48,85.5L52,85.5L52,77.4C51.3,77.5 50.7,77.5 50,77.5C49.3,77.5 48.7,77.4 48,77.4Z" style="fill-rule:nonzero;"/>
        <path d="M52,47.6L52,13.5L48,13.5L48,47.6C48.7,47.5 49.3,47.5 50,47.5C50.7,47.5 51.3,47.6 52,47.6Z" style="fill-rule:nonzero;"/>
        <path d="M52,49.7C51.3,49.6 50.7,49.5 50,49.5C49.3,49.5 48.7,49.6 48,49.7C41.8,50.7 37,56 37,62.5C37,69 41.8,74.4 48,75.3C48.7,75.4 49.3,75.5 50,75.5C50.7,75.5 51.3,75.4 52,75.3C58.2,74.3 63,69 63,62.5C63,56 58.2,50.6 52,49.7ZM52,71.3C51.4,71.4 50.7,71.5 50,71.5C49.3,71.5 48.6,71.4 48,71.3C44,70.4 41,66.8 41,62.5C41,58.2 44,54.6 48,53.7C48.6,53.6 49.3,53.5 50,53.5C50.7,53.5 51.4,53.6 52,53.7C56,54.6 59,58.2 59,62.5C59,66.8 56,70.4 52,71.3Z" style="fill-rule:nonzero;"/>
        <path d="M81,31.6L81,13.5L77,13.5L77,31.6C77.7,31.5 78.3,31.5 79,31.5C79.7,31.5 80.3,31.6 81,31.6Z" style="fill-rule:nonzero;"/>
        <path d="M77,61.4L77,85.5L81,85.5L81,61.4C80.3,61.5 79.7,61.5 79,61.5C78.3,61.5 77.7,61.4 77,61.4Z" style="fill-rule:nonzero;"/>
        <path d="M79,33.5C71.8,33.5 66,39.3 66,46.5C66,53.7 71.8,59.5 79,59.5C86.2,59.5 92,53.7 92,46.5C92,39.3 86.2,33.5 79,33.5ZM79,55.5C74,55.5 70,51.5 70,46.5C70,41.5 74,37.5 79,37.5C84,37.5 88,41.5 88,46.5C88,51.5 84,55.5 79,55.5Z" style="fill-rule:nonzero;"/>
    </g>
</svg>
