<svg width="100%" height="100%" viewBox="0 0 752 752" version="1.1" xmlns="http://www.w3.org/2000/svg" xmlns:xlink="http://www.w3.org/1999/xlink" xml:space="preserve" xmlns:serif="http://www.serif.com/" style="fill-rule:evenodd;clip-rule:evenodd;stroke-linejoin:round;stroke-miterlimit:2;">
    <g transform="matrix(1.56418,0,0,1.59778,-212.099,-224.765)">
        <path d="M391.04,318.57C406.895,318.57 421.259,325.008 431.645,335.39C442.032,345.788 448.465,360.156 448.465,376.011C448.465,391.866 442.028,406.23 431.645,416.632C421.258,427.019 406.895,433.452 391.04,433.452C375.169,433.452 360.821,427.014 350.419,416.632C340.021,406.234 333.599,391.866 333.599,376.011C333.599,360.156 340.021,345.792 350.419,335.39C360.806,325.003 375.169,318.57 391.04,318.57ZM476.102,423.59C480.649,423.59 484.997,424.387 489.043,425.863C492.168,419.738 494.727,413.289 496.672,406.582C499.457,396.977 500.934,386.719 500.934,376.008C500.934,345.66 488.629,318.184 468.739,298.293C448.849,278.402 421.372,266.098 391.024,266.098C360.661,266.098 333.2,278.403 313.309,298.293C293.418,318.183 281.114,345.66 281.114,376.008C281.114,406.356 293.419,433.832 313.309,453.723C333.199,473.614 360.676,485.918 391.024,485.918C401.508,485.918 411.626,484.454 421.172,481.743C427.75,479.868 434.086,477.395 440.082,474.399C438.675,470.434 437.921,466.172 437.921,461.739C437.921,451.255 442.199,441.735 449.101,434.801L449.172,434.73C456.09,427.84 465.61,423.578 476.082,423.578L476.102,423.59ZM506.661,438.949C511.434,445.328 514.263,453.215 514.263,461.754C514.263,472.238 509.985,481.774 503.083,488.692L503.012,488.762C496.094,495.653 486.574,499.914 476.102,499.914C467.477,499.914 459.493,497.016 453.086,492.141C444.903,496.516 436.223,500.055 427.145,502.641C415.653,505.91 403.532,507.672 391.043,507.672C354.688,507.672 321.766,492.938 297.941,469.098C274.117,445.274 259.367,412.352 259.367,375.996C259.367,339.641 274.101,306.719 297.941,282.894C321.765,259.07 354.687,244.32 391.043,244.32C427.399,244.32 460.32,259.054 484.145,282.894C507.969,306.718 522.704,339.64 522.704,375.996C522.704,388.598 520.884,400.887 517.505,412.609C514.833,421.859 511.181,430.679 506.681,438.949L506.661,438.949ZM487.692,450.101C487.309,449.718 486.911,449.347 486.497,449.007L486.399,448.921C483.598,446.675 480.02,445.339 476.098,445.339C471.536,445.339 467.446,447.16 464.489,450.097L464.446,450.14C461.505,453.081 459.688,457.187 459.688,461.749C459.688,465.472 460.895,468.882 462.942,471.608C463.126,471.823 463.298,472.05 463.47,472.276C463.782,472.647 464.11,473.015 464.45,473.355L464.493,473.397C467.434,476.339 471.54,478.155 476.102,478.155C480.664,478.155 484.77,476.335 487.711,473.397L487.754,473.355C490.695,470.413 492.512,466.308 492.512,461.746C492.512,457.183 490.691,453.093 487.754,450.137L487.711,450.094L487.692,450.101ZM194.282,263.911C197.805,263.911 201.231,264.282 204.54,264.962C223.052,233.946 249.067,207.946 280.083,189.462C312.591,170.099 350.54,158.974 391.013,158.974C450.939,158.974 505.203,183.255 544.473,222.54C583.743,261.81 608.039,316.067 608.039,376C608.039,435.926 583.742,490.19 544.473,529.46C505.188,568.73 450.946,593.026 391.013,593.026C331.087,593.026 276.823,568.729 237.543,529.46C198.273,490.19 173.977,435.933 173.977,376C173.977,372.234 174.106,368.172 174.348,363.824C174.407,362.746 174.477,361.664 174.547,360.597C168.579,358.054 163.195,354.39 158.664,349.855C149.559,340.75 143.918,328.16 143.918,314.25C143.918,300.355 149.559,287.766 158.664,278.645C167.77,269.54 180.359,263.899 194.269,263.899L194.282,263.911ZM224.473,273.97C226.391,275.404 228.196,276.966 229.887,278.657C238.993,287.763 244.633,300.352 244.633,314.263C244.633,328.157 238.993,340.746 229.887,349.868C221.164,358.59 209.258,364.134 196.059,364.587L196.032,365.028C195.848,368.337 195.747,372.005 195.747,376.012C195.747,429.93 217.614,478.742 252.946,514.092C288.282,549.428 337.098,571.291 391.026,571.291C444.944,571.291 493.756,549.424 529.106,514.092C564.442,478.756 586.305,429.94 586.305,376.012C586.305,322.094 564.438,273.282 529.106,237.932C493.77,202.596 444.954,180.733 391.026,180.733C354.514,180.733 320.385,190.706 291.233,208.081C263.999,224.308 241.038,246.968 224.471,273.976L224.473,273.97ZM214.5,294.044C209.328,288.872 202.184,285.677 194.281,285.677C186.383,285.677 179.234,288.872 174.062,294.044C168.89,299.216 165.695,306.36 165.695,314.263C165.695,322.161 168.89,329.31 174.062,334.482C179.234,339.654 186.378,342.849 194.281,342.849C202.18,342.849 209.328,339.654 214.5,334.482C219.672,329.31 222.868,322.166 222.868,314.263C222.868,306.365 219.672,299.216 214.5,294.044ZM416.26,350.759C409.796,344.31 400.873,340.318 391.026,340.318C381.167,340.318 372.245,344.31 365.792,350.759C359.343,357.208 355.351,366.13 355.351,375.993C355.351,385.852 359.344,394.774 365.792,401.227C372.257,407.676 381.179,411.668 391.026,411.668C400.874,411.668 409.796,407.676 416.26,401.227C422.71,394.778 426.701,385.856 426.701,375.993C426.701,366.134 422.709,357.212 416.26,350.759Z" style="fill-rule:nonzero;"/>
    </g>
</svg>
