<svg width="100%" height="100%" viewBox="0 0 752 752" version="1.1" xmlns="http://www.w3.org/2000/svg" xmlns:xlink="http://www.w3.org/1999/xlink" xml:space="preserve" xmlns:serif="http://www.serif.com/" style="fill-rule:evenodd;clip-rule:evenodd;stroke-linejoin:round;stroke-miterlimit:2;">
    <g transform="matrix(1.40514,0,0,1.71158,-152.333,-267.551)">
        <path d="M612.79,232.49L612.79,519.51C612.79,539.322 596.728,555.385 576.911,555.385L175.091,555.385C155.275,555.385 139.212,539.323 139.212,519.51L139.212,232.49C139.212,212.674 155.274,196.611 175.091,196.611L576.911,196.611C596.727,196.611 612.79,212.673 612.79,232.49ZM598.438,282.717L598.438,232.49C598.438,220.599 588.801,210.963 576.911,210.963L175.091,210.963C163.2,210.963 153.564,220.6 153.564,232.49L153.564,282.717L598.438,282.717ZM153.558,297.069L153.558,368.823L254.018,368.823L254.018,297.069L153.558,297.069ZM153.558,383.174L153.558,454.928L254.018,454.928L254.018,383.174L153.558,383.174ZM153.558,469.279L153.558,519.509C153.558,531.396 163.195,541.036 175.085,541.036L254.015,541.036L254.015,469.278L153.558,469.279ZM383.168,297.069L383.168,368.823L483.628,368.823L483.628,297.069L383.168,297.069ZM383.168,383.174L383.168,454.928L483.628,454.928L483.628,383.174L383.168,383.174ZM383.168,469.279L383.168,541.037L483.628,541.037L483.628,469.279L383.168,469.279ZM268.368,297.069L268.368,368.823L368.818,368.823L368.818,297.069L268.368,297.069ZM268.368,383.174L268.368,454.928L368.818,454.928L368.818,383.174L268.368,383.174ZM268.368,469.279L268.368,541.037L368.818,541.037L368.818,469.279L268.368,469.279ZM497.978,297.069L497.978,368.823L598.438,368.823L598.438,297.069L497.978,297.069ZM497.978,383.174L497.978,454.928L598.438,454.928L598.438,383.174L497.978,383.174ZM497.978,469.279L497.978,541.037L576.908,541.037C588.799,541.037 598.435,531.396 598.435,519.51L598.435,469.28L497.978,469.279Z" style="fill-rule:nonzero;"/>
    </g>
</svg>
