<svg width="100%" height="100%" viewBox="0 0 752 752" version="1.1" xmlns="http://www.w3.org/2000/svg" xmlns:xlink="http://www.w3.org/1999/xlink" xml:space="preserve" xmlns:serif="http://www.serif.com/" style="fill-rule:evenodd;clip-rule:evenodd;stroke-linejoin:round;stroke-miterlimit:2;">
    <g transform="matrix(1.71274,0,0,1.71274,-267.99,-267.757)">
        <path d="M502.92,552.65L502.92,327.7C502.92,321.544 500.553,315.388 495.815,311.126C495.342,310.653 494.869,310.181 494.393,310.181L463.135,289.818C462.189,284.134 459.346,278.451 455.084,274.662L372.209,196.045C363.213,187.521 349.479,187.521 340.951,196.045L258.076,274.662C252.392,279.873 249.08,287.447 249.08,295.025L249.08,508.615C249.08,513.826 253.341,518.087 258.552,518.087L284.126,518.087L284.126,552.185C284.126,557.396 288.388,561.658 293.599,561.658L493.449,561.658C498.656,562.127 502.918,557.865 502.918,552.658L502.92,552.65ZM268.02,295.49C268.02,293.123 268.965,290.279 270.86,288.861L353.262,210.248C354.684,208.826 357.051,208.826 358.473,210.248L440.875,288.861C442.769,290.756 443.715,293.123 443.715,295.49L443.715,499.6L268.015,499.6L268.02,295.49ZM483.97,543.17L303.06,543.17L303.06,518.545L454.13,518.545C459.341,518.545 463.603,514.283 463.603,509.072L463.599,313.012L483.017,325.797C483.489,326.27 483.962,327.219 483.962,328.165L483.97,543.17Z" style="fill-rule:nonzero;"/>
        <path d="M354.69,279.39C336.694,279.39 322.014,294.07 322.014,312.066C322.014,330.062 336.694,344.742 354.69,344.742C372.686,344.742 387.366,330.062 387.366,312.066C387.366,294.07 372.686,279.39 354.69,279.39ZM354.69,325.8C347.112,325.8 340.956,319.644 340.956,312.066C340.956,304.488 347.112,298.332 354.69,298.332C362.268,298.332 368.424,304.488 368.424,312.066C368.424,319.644 362.264,325.8 354.69,325.8Z" style="fill-rule:nonzero;"/>
    </g>
</svg>
