<svg width="100%" height="100%" viewBox="0 0 300 300" version="1.1" xmlns="http://www.w3.org/2000/svg" xmlns:xlink="http://www.w3.org/1999/xlink" xml:space="preserve" xmlns:serif="http://www.serif.com/" style="fill-rule:evenodd;clip-rule:evenodd;stroke-linejoin:round;stroke-miterlimit:2;">
    <g transform="matrix(1.05006,0,0,1.05006,-2212.63,-795.053)">
        <g>
            <path d="M2278.12,956.25C2278.12,930.366 2257.13,909.375 2231.25,909.375L2156.25,909.375C2130.37,909.375 2109.38,930.366 2109.38,956.25L2109.38,979.688C2109.38,985.903 2111.84,991.866 2116.24,996.263C2120.63,1000.66 2126.6,1003.12 2132.81,1003.12L2254.69,1003.12C2260.9,1003.12 2266.87,1000.66 2271.26,996.263C2275.66,991.866 2278.12,985.903 2278.12,979.688L2278.12,956.25ZM2306.25,1003.12L2367.19,1003.12C2380.13,1003.12 2390.62,992.634 2390.62,979.688L2390.62,975C2390.62,967.537 2387.66,960.384 2382.38,955.116C2377.12,949.838 2369.96,946.875 2362.5,946.875L2306.25,946.875C2301.08,946.875 2296.88,951.075 2296.88,956.25C2296.88,961.425 2301.08,965.625 2306.25,965.625L2362.5,965.625C2364.98,965.625 2367.38,966.609 2369.13,968.372C2370.89,970.125 2371.88,972.516 2371.88,975L2371.88,979.688C2371.88,982.275 2369.78,984.375 2367.19,984.375L2306.25,984.375C2301.08,984.375 2296.88,988.575 2296.88,993.75C2296.88,998.925 2301.08,1003.12 2306.25,1003.12ZM2259.38,956.25L2259.38,979.688C2259.38,980.934 2258.88,982.125 2258.01,983.006C2257.12,983.878 2255.93,984.375 2254.69,984.375L2132.81,984.375C2131.57,984.375 2130.38,983.878 2129.49,983.006C2128.62,982.125 2128.12,980.934 2128.12,979.688L2128.12,956.25C2128.12,940.716 2140.72,928.125 2156.25,928.125L2231.25,928.125C2246.78,928.125 2259.38,940.716 2259.38,956.25ZM2325,853.125C2304.3,853.125 2287.5,869.925 2287.5,890.625C2287.5,911.325 2304.3,928.125 2325,928.125C2345.7,928.125 2362.5,911.325 2362.5,890.625C2362.5,869.925 2345.7,853.125 2325,853.125ZM2325,871.875C2335.35,871.875 2343.75,880.275 2343.75,890.625C2343.75,900.975 2335.35,909.375 2325,909.375C2314.65,909.375 2306.25,900.975 2306.25,890.625C2306.25,880.275 2314.65,871.875 2325,871.875ZM2193.75,796.875C2167.88,796.875 2146.88,817.875 2146.88,843.75C2146.88,869.625 2167.88,890.625 2193.75,890.625C2219.62,890.625 2240.62,869.625 2240.62,843.75C2240.62,817.875 2219.62,796.875 2193.75,796.875ZM2193.75,815.625C2209.28,815.625 2221.88,828.225 2221.88,843.75C2221.88,859.275 2209.28,871.875 2193.75,871.875C2178.22,871.875 2165.62,859.275 2165.62,843.75C2165.62,828.225 2178.22,815.625 2193.75,815.625Z"/>
        </g>
    </g>
</svg>
