<svg width="100%" height="100%" viewBox="0 0 200 200" version="1.1" xmlns="http://www.w3.org/2000/svg" xmlns:xlink="http://www.w3.org/1999/xlink" xml:space="preserve" xmlns:serif="http://www.serif.com/" style="fill-rule:evenodd;clip-rule:evenodd;stroke-linejoin:round;stroke-miterlimit:2;">
    <g transform="matrix(1.07752,0,0,1.09437,-7.75215,-2093.91)">
        <path d="M50,1942.72C31.199,1942.72 16,1957.92 16,1976.72L16,2032.72C16,2051.53 31.199,2066.72 50,2066.72L150,2066.72C168.801,2066.72 184,2051.53 184,2032.72L184,1976.72C184,1957.92 168.801,1942.72 150,1942.72L50,1942.72ZM50,1946.72L150,1946.72C166.654,1946.72 180,1960.07 180,1976.72L180,2032.72C180,2049.38 166.654,2062.72 150,2062.72L50,2062.72C33.346,2062.72 20,2049.38 20,2032.72L20,1976.72C20,1960.07 33.346,1946.72 50,1946.72L50,1946.72ZM81.563,1974.6C80.699,1974.81 80.032,1975.75 80.063,1976.72L80.063,2032.72C80.061,2032.79 80.061,2032.85 80.063,2032.91C80.185,2034.34 81.907,2035.26 83,2034.48L126.938,2006.48C128.029,2005.72 128.029,2003.66 126.938,2002.91L83,1974.91C82.583,1974.61 82.054,1974.49 81.563,1974.6L81.563,1974.6ZM83.938,1980.29L122.188,2004.72L83.938,2029.16L83.938,1980.29Z" style="fill-rule:nonzero;"/>
    </g>
</svg>
