<svg width="100%" height="100%" viewBox="0 0 512 512" version="1.1" xmlns="http://www.w3.org/2000/svg" xmlns:xlink="http://www.w3.org/1999/xlink" xml:space="preserve" xmlns:serif="http://www.serif.com/" style="fill-rule:evenodd;clip-rule:evenodd;stroke-linejoin:round;stroke-miterlimit:2;">
    <g id="_-000000ff" serif:id="#000000ff" transform="matrix(1.21057,0,0,1.21057,-53.8939,-53.91)">
        <path d="M184.79,53.81C190.35,49.98 197.17,48.26 203.88,48.25C238.6,48.25 273.33,48.24 308.06,48.25C315.67,48.28 323.44,50.67 329.25,55.7C335.58,61.3 339.57,69.49 339.94,77.96C340.22,84.38 339.98,90.82 340.06,97.25C362.36,97.26 384.66,97.23 406.96,97.26C422.04,97.31 437.05,103.49 447.41,114.51C457.8,124.86 463.44,139.45 463.64,154.03C463.75,167.03 463.65,180.03 463.69,193.02C463.59,203.64 464.49,214.6 460.76,224.78C453.69,247.13 431.51,263.69 408.02,263.77C385.36,263.73 362.71,263.76 340.06,263.75C339.68,272.52 341.01,281.49 338.94,290.11C335.95,301.27 326.16,310.33 314.77,312.34C310.23,313.22 305.59,312.99 300.99,313C267.98,312.96 234.96,313.08 201.95,312.94C187.8,312.88 174.62,301.92 172.18,287.96C171.03,279.95 171.84,271.81 171.6,263.75C148.75,263.82 125.9,263.62 103.06,263.85C82.41,264.11 63.97,282.36 63.56,303.03C63.5,321.02 63.56,339.02 63.54,357.02C63.45,365.32 65.67,373.73 70.33,380.65C77.6,391.83 90.6,399.25 104.02,399.19C126.55,399.32 149.07,399.21 171.6,399.24C172.21,388.24 169.53,376.3 175.25,366.22C180.46,356.1 191.69,350 202.94,350.02C237.64,349.96 272.34,350.03 307.05,349.99C314.62,349.87 322.38,351.94 328.36,356.72C335.6,362.55 339.94,371.67 340,380.96C340.14,396.97 340,412.99 340.07,429.01C340.11,433.56 340.01,438.22 338.49,442.57C334.63,454.55 322.8,463.74 310.1,463.76C277.06,463.74 244.02,463.76 210.98,463.75C205.45,463.6 199.78,464.33 194.37,462.82C182.3,459.68 172.7,448.52 171.78,436.01C171.37,428.93 171.7,421.83 171.59,414.75C148.84,414.72 126.08,414.82 103.33,414.7C82.12,414.59 61.87,400.99 53.21,381.71C49.79,374.31 48.01,366.18 48.01,358.03C47.94,340.68 48.01,323.33 47.97,305.99C47.48,290 54.43,273.96 66.31,263.28C74.23,255.89 84.33,250.98 94.98,249.15C101.26,248.08 107.65,248.25 113.99,248.25C133.19,248.25 152.4,248.25 171.6,248.24C172.21,237.02 169.45,224.74 175.61,214.57C180.93,204.82 191.91,199.04 202.89,199.02C237.95,198.97 273.01,199.01 308.08,199C317.63,198.97 327.48,202.94 333.26,210.75C337.39,215.88 339.67,222.33 339.95,228.9C340.21,235.34 339.98,241.8 340.06,248.25C359.38,248.25 378.71,248.24 398.04,248.25C404.14,248.24 410.31,248.48 416.31,247.2C428.15,244.26 438.64,236.03 443.93,224.98C446.79,219.1 448.18,212.56 448.12,206.02C448.12,189.34 448.11,172.66 448.12,155.98C448.18,147.21 446.01,138.26 440.98,130.99C433.57,119.85 420.44,112.58 406.98,112.79C384.68,112.7 362.37,112.78 340.06,112.75C339.64,121.76 341.13,131.01 338.73,139.82C335.03,152.64 322.33,162.03 308.99,161.97C274,162.05 239,161.97 204,162C196.75,162.03 189.25,160.13 183.61,155.38C176,149.78 171.54,140.38 171.61,130.96C171.57,113.64 171.62,96.32 171.59,78.99C171.46,69.09 176.64,59.38 184.79,53.81M197.45,64.63C191.43,66.56 187.05,72.65 187.18,78.99C187.14,96.3 187.13,113.62 187.19,130.94C186.98,138.95 193.95,146.22 201.99,146.2C237.34,146.32 272.7,146.2 308.05,146.26C313.09,146.42 318.31,144.37 321.29,140.19C323.89,137.09 324.58,132.93 324.51,128.99C324.48,112.97 324.49,96.95 324.51,80.93C324.52,77.01 323.81,72.88 321.25,69.77C318.26,65.59 313.03,63.55 307.99,63.74C273.33,63.76 238.66,63.77 203.99,63.74C201.79,63.76 199.54,63.88 197.45,64.63M197.45,215.63C191.42,217.57 187.05,223.66 187.18,230.01C187.15,247.33 187.12,264.65 187.19,281.97C187,289.95 193.96,297.21 201.98,297.2C237.65,297.3 273.33,297.24 309,297.23C317.2,297.48 324.61,290.25 324.45,282.03C324.57,265.34 324.45,248.65 324.51,231.96C324.55,227.81 323.69,223.43 320.84,220.25C317.82,216.38 312.81,214.59 308,214.74C273.32,214.76 238.64,214.77 203.96,214.74C201.77,214.76 199.53,214.87 197.45,215.63M197.47,366.62C191.42,368.56 187.04,374.66 187.18,381.02C187.15,398.33 187.13,415.64 187.19,432.95C187,440.97 193.99,448.24 202.04,448.2C237.69,448.29 273.36,448.25 309.02,448.23C317.23,448.48 324.64,441.21 324.46,432.98C324.58,416.66 324.43,400.33 324.52,384.01C324.55,380 324.18,375.7 321.7,372.38C318.94,368.19 314,365.74 309.03,365.77C274,365.71 238.97,365.79 203.95,365.74C201.76,365.76 199.54,365.87 197.47,366.62Z" style="fill-rule:nonzero;"/>
        <path d="M75.66,80.99C75.11,76.71 78.81,72.4 83.2,72.58C85.95,72.34 88.29,74.01 90.09,75.9C97.91,83.79 105.89,91.52 113.67,99.45C116.8,102.38 116.76,107.7 113.62,110.61C105.69,118.73 97.59,126.7 89.62,134.78C87.29,137.48 83.23,138.82 79.97,137C75.44,134.9 74.1,128.31 77.72,124.77C84.12,118.07 90.79,111.62 97.28,105.01C91.23,99 85.2,92.96 79.12,86.98C77.49,85.33 75.74,83.45 75.66,80.99Z" style="fill-rule:nonzero;"/>
        <path d="M112.54,75.5C115.14,71.85 121.05,71.59 124.13,74.77C131.91,82.34 139.51,90.11 147.28,97.69C149.28,99.65 151.45,101.96 151.31,104.98C151.48,107.99 149.3,110.29 147.34,112.27C139.58,119.91 132.01,127.73 124.24,135.36C121.79,138.05 117.4,138.69 114.42,136.51C110.55,134.12 109.63,128.2 112.87,124.91C119.27,118.13 126.02,111.68 132.53,105C126.1,98.54 119.54,92.21 113.17,85.69C110.42,83.09 110.09,78.41 112.54,75.5Z" style="fill-rule:nonzero;"/>
        <path d="M221.33,82.36C243.23,82.08 265.16,82.35 287.07,82.22C289.72,82.32 292.82,82.09 294.85,84.15C298.02,86.96 298.41,92.28 295.37,95.34C293.39,97.83 289.96,97.73 287.09,97.77C265.7,97.72 244.31,97.78 222.92,97.75C219.88,97.89 216.6,96.78 215.2,93.87C212.26,89.31 215.77,82.28 221.33,82.36Z" style="fill-rule:nonzero;"/>
        <path d="M221.32,112.36C243.89,112.11 266.47,112.29 289.04,112.27C293.12,111.86 296.92,114.94 297.41,119.01C298.21,123.78 293.85,128.09 289.16,127.93C267.76,128.11 246.35,127.92 224.95,128.02C221.35,128.13 217,127.48 215.21,123.89C212.25,119.33 215.76,112.29 221.32,112.36Z" style="fill-rule:nonzero;"/>
        <path d="M221.35,233.35C243.58,233.1 265.83,233.33 288.07,233.24C291.41,233.01 295.13,234.12 296.57,237.43C299.4,242.16 295.43,249.02 289.86,248.68C267.89,248.86 245.91,248.68 223.93,248.77C220.87,248.84 217.28,248.43 215.59,245.49C212.04,240.98 215.47,233.26 221.35,233.35Z" style="fill-rule:nonzero;"/>
        <path d="M221.36,263.35C243.26,263.09 265.18,263.35 287.09,263.22C289.74,263.32 292.85,263.09 294.88,265.17C298.02,267.99 298.4,273.29 295.37,276.34C293.38,278.84 289.94,278.72 287.06,278.78C265.69,278.72 244.33,278.78 222.96,278.75C219.94,278.89 216.66,277.82 215.25,274.94C212.23,270.37 215.76,263.26 221.36,263.35Z" style="fill-rule:nonzero;"/>
        <path d="M408.44,355.55C418.97,354.37 429.74,356.8 438.93,362.01C452.17,369.77 461.63,383.79 463.47,399.08C465.29,411.7 461.8,424.93 454.19,435.14C445.06,447.85 429.68,455.72 414.02,455.71C405.68,455.86 397.41,453.65 390.02,449.83C375.11,441.83 364.67,425.94 363.72,408.98C362.64,397.36 366.14,385.52 373.02,376.14C381.2,364.65 394.41,356.97 408.44,355.55M409.27,371.12C397.59,372.51 386.86,380.48 382.13,391.26C377.46,401.26 378.28,413.57 383.9,423.03C391.45,436.5 408.7,443.46 423.44,438.71C440.09,434.27 451.53,415.9 447.69,398.99C444.83,381.49 426.83,368.31 409.27,371.12Z" style="fill-rule:nonzero;"/>
        <path d="M221.3,384.36C244.14,384.14 267.01,384.23 289.85,384.32C295.73,383.94 299.65,391.57 296.21,396.24C294.61,399.15 291.15,399.88 288.1,399.76C266.09,399.71 244.08,399.82 222.08,399.71C218.12,399.99 214.61,396.79 214.21,392.91C213.61,388.76 216.99,384.32 221.3,384.36Z" style="fill-rule:nonzero;"/>
        <path d="M423.07,391.11C425.95,388.04 431.7,388.41 434.08,391.93C436.71,394.92 436.5,399.81 433.6,402.54C428.14,408.1 422.52,413.52 416.96,418.99C414.68,421.39 410.94,422.96 407.84,421.13C403.99,418.79 401.26,415.05 397.93,412.07C395.2,409.23 391.14,406.46 391.59,401.99C391.71,396.71 397.85,393.2 402.55,395.45C405.83,397.36 408.18,400.47 410.95,403.01C415.02,399.08 419.02,395.07 423.07,391.11Z" style="fill-rule:nonzero;"/>
        <path d="M221.33,414.36C244.16,414.14 267,414.23 289.83,414.32C295.74,413.92 299.67,421.61 296.18,426.28C294.38,429.55 290.4,429.88 287.08,429.77C265.43,429.69 243.78,429.83 222.13,429.71C217.13,430.16 213.12,424.92 214.35,420.19C215.14,417.03 217.95,414.31 221.33,414.36Z" style="fill-rule:nonzero;"/>
    </g>
</svg>
