<svg width="100%" height="100%" viewBox="0 0 300 300" version="1.1" xmlns="http://www.w3.org/2000/svg" xmlns:xlink="http://www.w3.org/1999/xlink" xml:space="preserve" xmlns:serif="http://www.serif.com/" style="fill-rule:evenodd;clip-rule:evenodd;stroke-linejoin:round;stroke-miterlimit:2;">
    <g transform="matrix(1,0,0,1,-19.5015,-24.8202)">
        <g transform="matrix(1.26593,0,0,1.26593,-20.388,-15.0694)">
            <path d="M93.333,243.333L206.667,243.333C216,243.333 223.333,236 223.333,226.667L223.333,73.333C223.333,64 216,56.667 206.667,56.667L93.333,56.667C84,56.667 76.667,64 76.667,73.333L76.667,226.667C76.667,236 84,243.333 93.333,243.333ZM90,73.333C90,71.333 91.333,70 93.333,70L206.667,70C208.667,70 210,71.333 210,73.333L210,226.667C210,228.667 208.667,230 206.667,230L93.333,230C91.333,230 90,228.667 90,226.667L90,73.333Z" style="fill-rule:nonzero;"/>
        </g>
        <g transform="matrix(1.26593,0,0,1.26593,-20.388,-15.0694)">
            <path d="M110,130L136.667,130C140.333,130 143.333,127 143.333,123.333L143.333,96.667C143.333,93 140.333,90 136.667,90L110,90C106.333,90 103.333,93 103.333,96.667L103.333,123.333C103.333,127 106.333,130 110,130ZM116.667,103.333L130,103.333L130,116.667L116.667,116.667L116.667,103.333Z" style="fill-rule:nonzero;"/>
        </g>
        <g transform="matrix(1.26593,0,0,1.26593,-20.388,-15.0694)">
            <path d="M175.667,166.667C174.333,164.667 172.333,163.333 170,163.333C167.667,163.333 165.333,164.667 164.333,166.667L144.333,200C143,202 143,204.667 144.333,206.667C145.667,208.667 147.667,210 150,210L190,210C192.333,210 194.667,208.667 195.667,206.667C197,204.667 196.667,202 195.667,200L175.667,166.667ZM161.667,196.667L170,183L178.333,196.667L161.667,196.667Z" style="fill-rule:nonzero;"/>
        </g>
        <g transform="matrix(1.26593,0,0,1.26593,-20.388,-15.0694)">
            <path d="M110,183.333L133.333,183.333C137,183.333 140,180.333 140,176.667C140,173 137,170 133.333,170L110,170C106.333,170 103.333,173 103.333,176.667C103.333,180.333 106.333,183.333 110,183.333Z" style="fill-rule:nonzero;"/>
        </g>
        <g transform="matrix(1.26593,0,0,1.26593,-20.388,-15.0694)">
            <path d="M110,156.667L190,156.667C193.667,156.667 196.667,153.667 196.667,150C196.667,146.333 193.667,143.333 190,143.333L110,143.333C106.333,143.333 103.333,146.333 103.333,150C103.333,153.667 106.333,156.667 110,156.667Z" style="fill-rule:nonzero;"/>
        </g>
        <g transform="matrix(1.26593,0,0,1.26593,-20.388,-15.0694)">
            <path d="M163.333,130L190,130C193.667,130 196.667,127 196.667,123.333C196.667,119.667 193.667,116.667 190,116.667L163.333,116.667C159.667,116.667 156.667,119.667 156.667,123.333C156.667,127 159.667,130 163.333,130Z" style="fill-rule:nonzero;"/>
        </g>
        <g transform="matrix(1.26593,0,0,1.26593,-20.388,-15.0694)">
            <path d="M163.333,103.333L190,103.333C193.667,103.333 196.667,100.333 196.667,96.667C196.667,93 193.667,90 190,90L163.333,90C159.667,90 156.667,93 156.667,96.667C156.667,100.333 159.667,103.333 163.333,103.333Z" style="fill-rule:nonzero;"/>
        </g>
        <g transform="matrix(1.26593,0,0,1.26593,-20.388,-15.0694)">
            <path d="M110,210L123.333,210C127,210 130,207 130,203.333C130,199.667 127,196.667 123.333,196.667L110,196.667C106.333,196.667 103.333,199.667 103.333,203.333C103.333,207 106.333,210 110,210Z" style="fill-rule:nonzero;"/>
        </g>
    </g>
</svg>
