<svg height='300px' width='300px'  fill="#070000" xmlns="http://www.w3.org/2000/svg" viewBox="0 0 48 48" x="0px" y="0px"><title>Ui vol.1</title><g data-name="Layer 11"><path d="M3.10742,36.9043l-.04638-2c.12939-.00293,13.00048-.42285,16.72851-9.67969,4.07275-10.11035,6.75684-14.5415,15.36719-14.5415v2c-7.49121,0-9.54688,3.44482-13.51172,13.28955C17.4209,36.459,3.68945,36.89063,3.10742,36.9043Z"></path><path d="M35.15674,37.31738c-6.1875,0-9.47022-2.19824-12.54541-8.40039l1.792-.88867c2.73535,5.51758,5.34863,7.28906,10.75342,7.28906Z"></path><path d="M18.30371,19.51367C13.46,12.59424,3.16455,12.273,3.061,12.27051l.04687-1.999c.46387.01075,11.4165.356,16.83447,8.09473Z"></path><path d="M38.2334,16.69531V6.67041l8.68213,5.0127Zm2-6.561v3.09717l2.68213-1.54834Z"></path><path d="M38.2334,41.33008V31.30371l8.68213,5.01367Zm2-6.56153v3.09668l2.68213-1.54785Z"></path></g></svg>