<svg height='300px' width='300px'  fill="#000000" xmlns="http://www.w3.org/2000/svg" xmlns:xlink="http://www.w3.org/1999/xlink" version="1.1" viewBox="0 0 256 256" x="0px" y="0px"><path d="M205.312 36.377c-3.994-3.993-9.267-5.991-14.489-5.991s-10.496 1.997-14.464 5.991l-26.88 26.88-8.192-8.192c-3.994-3.993-10.47-4.019-14.413-0.077s-3.917 10.419 0.077 14.413l8.729 8.704-64.231 64.231-13.901 30.745 12.263 12.262 30.515-14.183 64.205-64.205 8.73 8.73c3.994 3.993 10.47 4.019 14.413 0.077s3.917-10.419-0.077-14.413l-8.192-8.192 26.855-26.855c3.994-3.993 5.99-9.267 5.99-14.489s-1.997-10.496-5.99-14.489l-0.947-0.947zM94.362 162.637l-22.374 10.393-2.176-2.176 10.215-22.579 62.925-62.899 14.362 14.362-62.951 62.899z" fill="#000000"></path><path d="M40.806 212.352c0 7.066 5.734 12.8 12.8 12.8s12.8-5.734 12.8-12.8-12.8-26.010-12.8-26.010-12.8 18.944-12.8 26.010z" fill="#000000"></path></svg>