<svg height='300px' width='300px'  fill="#070000" xmlns="http://www.w3.org/2000/svg" xmlns:xlink="http://www.w3.org/1999/xlink" version="1.1" x="0px" y="0px" viewBox="0 0 50 50" style="enable-background:new 0 0 50 50;" xml:space="preserve"><g><path d="M37.4,27.2c5.8,0,10.5,4.7,10.5,10.5s-4.7,10.5-10.5,10.5s-10.5-4.7-10.5-10.5S31.6,27.2,37.4,27.2 M37.4,25.2   c-6.9,0-12.5,5.6-12.5,12.5s5.6,12.5,12.5,12.5s12.5-5.6,12.5-12.5S44.3,25.2,37.4,25.2L37.4,25.2z"></path></g><g><rect x="1" y="14.7" width="42.4" height="2"></rect></g><g><rect x="8.9" y="0.2" width="2" height="8.3"></rect></g><g><rect x="20.8" y="0.2" width="2" height="8.3"></rect></g><g><rect x="33" y="0.2" width="2" height="8.3"></rect></g><g><polygon points="29.8,47.2 0,47.2 0,3.3 44.4,3.3 44.4,27.7 42.4,27.7 42.4,5.3 2,5.3 2,45.2 29.8,45.2  "></polygon></g><g><polygon points="45.1,39.3 36.4,39.3 36.4,29.8 38.4,29.8 38.4,37.3 45.1,37.3  "></polygon></g></svg>