<svg height='300px' width='300px'  fill="#000000" xmlns="http://www.w3.org/2000/svg" xmlns:xlink="http://www.w3.org/1999/xlink" version="1.1" x="0px" y="0px" viewBox="0 0 512 512" style="enable-background:new 0 0 512 512;" xml:space="preserve"><g><path d="M81.9,334.4L57.5,444.8c-0.7,3.3,0.3,6.8,2.7,9.3c1.9,1.9,4.4,2.9,7,2.9c0.7,0,1.5-0.1,2.2-0.3l108.8-25   c1.9-0.4,3.6-1.4,4.9-2.7l0,0l254.3-257.6c23-23.2,23-61.1,0-84.3l-14-14.2C412,61.4,396.9,55,380.7,55c-16.2,0-31.3,6.3-42.7,17.8   L84.6,329.5l0,0C83.3,330.9,82.3,332.5,81.9,334.4z M80.4,433.7l14.9-67.3c13,21.1,30.7,38.9,51.6,52L80.4,433.7z M173.7,410.1   c-31.2-14.3-56.4-39.8-70.2-71.2l200-202.5l70.3,71.2L173.7,410.1z M352.3,86.9c7.6-7.7,17.7-11.9,28.5-11.9   c10.8,0,20.9,4.2,28.5,11.9l14,14.2c15.3,15.5,15.3,40.7,0,56.2l-35.5,35.9l-70.3-71.2L352.3,86.9z"></path></g></svg>