<svg height='300px' width='300px'  fill="#070000" xmlns="http://www.w3.org/2000/svg" xmlns:xlink="http://www.w3.org/1999/xlink" version="1.0" x="0px" y="0px" viewBox="0 0 100 100" enable-background="new 0 0 100 100" xml:space="preserve"><path d="M13.333,90.001h15c1.833,0,3.334-1.501,3.334-3.333v-15c0-1.833-1.501-3.334-3.334-3.334h-15  c-1.832,0-3.333,1.501-3.333,3.334v15C10,88.5,11.501,90.001,13.333,90.001z M16.667,75.001H25v8.333h-8.333V75.001z"></path><path d="M42.5,90.001h15c1.833,0,3.334-1.501,3.334-3.333v-15c0-1.833-1.501-3.334-3.334-3.334h-15  c-1.833,0-3.333,1.501-3.333,3.334v15C39.167,88.5,40.667,90.001,42.5,90.001z M45.833,75.001h8.333v8.333h-8.333V75.001z"></path><path d="M13.333,60.834h73.333c1.833,0,3.333-1.5,3.333-3.333V13.334c0-1.833-1.5-3.333-3.333-3.333H13.333  c-1.832,0-3.333,1.5-3.333,3.333v44.167C10,59.334,11.501,60.834,13.333,60.834z M16.667,16.667h66.667v37.501H16.667V16.667z"></path><path d="M71.667,90.001h15C88.5,90.001,90,88.5,90,86.668v-15c0-1.833-1.5-3.334-3.333-3.334h-15c-1.833,0-3.333,1.501-3.333,3.334  v15C68.334,88.5,69.834,90.001,71.667,90.001z M75,75.001h8.334v8.333H75V75.001z"></path></svg>