<svg height='300px' width='300px'  fill="#070000" xmlns="http://www.w3.org/2000/svg" viewBox="0 0 48 48" x="0px" y="0px"><title>Language</title><g><path d="M45,0H23a3,3,0,0,0-3,3V18H3a3,3,0,0,0-3,3V41a3,3,0,0,0,3,3H5v3a1,1,0,0,0,1,1c.43,0,.06.16,6.3-4H25a3,3,0,0,0,3-3V26h7.7c6.2,4.14,5.88,4,6.3,4a1,1,0,0,0,1-1V26h2a3,3,0,0,0,3-3V3A3,3,0,0,0,45,0ZM26,41a1,1,0,0,1-1,1H12c-.42,0-.22-.06-5,3.13V43c0-2-3.77-.34-4.71-1.31C1.87,41.29,2,42.76,2,21a1,1,0,0,1,1-1H20v3a3,3,0,0,0,3,3h3ZM46,23a1,1,0,0,1-1,1H42a1,1,0,0,0-1,1v2.13C36.21,23.94,36.42,24,36,24H23a1,1,0,0,1-1-1V3a1,1,0,0,1,1-1H45a1,1,0,0,1,1,1Z"></path><path d="M14.94,26.65a1,1,0,0,0-1.88,0l-3,8a1,1,0,0,0,1.88.7l.5-1.35h3.12l.5,1.35a1,1,0,0,0,1.88-.7ZM13.19,32,14,29.85,14.81,32Z"></path><path d="M38,8H35V7a1,1,0,0,0-2,0V8H30a1,1,0,0,0,0,2h5.89A7.22,7.22,0,0,1,34,13.46a9.42,9.42,0,0,1-.84-1,1,1,0,0,0-1.64,1.14,11.28,11.28,0,0,0,1,1.24,14.16,14.16,0,0,1-2,1.3,1,1,0,0,0,.9,1.78A15.21,15.21,0,0,0,34,16.2a15,15,0,0,0,2.55,1.69,1,1,0,0,0,.9-1.78,14.16,14.16,0,0,1-2-1.29A9,9,0,0,0,37.93,10,1,1,0,1,0,38,8Z"></path></g></svg>