<svg height='300px' width='300px'  fill="#070000" xmlns="http://www.w3.org/2000/svg" data-name="Layer 1" viewBox="0 0 100 100" x="0px" y="0px"><title>02</title><g data-name="Group"><path data-name="Compound Path" d="M51.78,10.75H48.22A17.61,17.61,0,0,0,30.63,28.34v16H18a1,1,0,0,0-1,1v43a1,1,0,0,0,1,1H82a1,1,0,0,0,1-1v-43a1,1,0,0,0-1-1H69.37v-16A17.61,17.61,0,0,0,51.78,10.75ZM32.63,28.34A15.61,15.61,0,0,1,48.22,12.75h3.55A15.61,15.61,0,0,1,67.37,28.34v16H32.63ZM81,87.25H19v-41H81Z"></path><rect data-name="Path" x="49" y="62.5" width="2" height="14.28"></rect></g></svg>