<svg height='300px' width='300px'  fill="#070000" xmlns:dc="http://purl.org/dc/elements/1.1/" xmlns:cc="http://creativecommons.org/ns#" xmlns:rdf="http://www.w3.org/1999/02/22-rdf-syntax-ns#" xmlns:svg="http://www.w3.org/2000/svg" xmlns="http://www.w3.org/2000/svg" xmlns:sodipodi="http://sodipodi.sourceforge.net/DTD/sodipodi-0.dtd" xmlns:inkscape="http://www.inkscape.org/namespaces/inkscape" version="1.1" x="0px" y="0px" viewBox="0 0 100 100"><g transform="translate(0,-952.36218)"><path style="font-size:medium;font-style:normal;font-variant:normal;font-weight:normal;font-stretch:normal;text-indent:0;text-align:start;text-decoration:none;line-height:normal;letter-spacing:normal;word-spacing:normal;text-transform:none;direction:ltr;block-progression:tb;writing-mode:lr-tb;text-anchor:start;baseline-shift:baseline;opacity:1;color:#000000;fill:#070000;fill-opacity:1;stroke:none;stroke-width:3.99999927999999990;marker:none;visibility:visible;display:inline;overflow:visible;enable-background:accumulate;font-family:Sans;-inkscape-font-specification:Sans" d="M 38.90625 12.96875 A 2.0001996 2.0001996 0 0 0 37.5625 13.625 L 34 17.375 L 34 15 A 2.0001996 2.0001996 0 0 0 32 13 L 6 13 A 2.0001996 2.0001996 0 0 0 4 15 L 4 43 A 2.0001996 2.0001996 0 0 0 6 45 L 32 45 A 2.0001996 2.0001996 0 0 0 34 43 L 34 23.15625 L 40.4375 16.375 A 2.0001996 2.0001996 0 0 0 38.90625 12.96875 z M 8 17 L 30 17 L 30 21.59375 L 19.96875 32.15625 L 14.40625 26.59375 A 2.0001996 2.0001996 0 1 0 11.59375 29.40625 L 18.59375 36.40625 A 2.0001996 2.0001996 0 0 0 21.4375 36.375 L 30 27.375 L 30 41 L 8 41 L 8 17 z M 41.8125 27 A 2.0021961 2.0021961 0 1 0 42 31 L 94 31 A 2.0001996 2.0001996 0 1 0 94 27 L 42 27 A 2.0001996 2.0001996 0 0 0 41.8125 27 z M 6 55 A 2.0001996 2.0001996 0 0 0 4 57 L 4 85 A 2.0001996 2.0001996 0 0 0 6 87 L 32 87 A 2.0001996 2.0001996 0 0 0 34 85 L 34 57 A 2.0001996 2.0001996 0 0 0 32.1875 55 A 2.0001996 2.0001996 0 0 0 32 55 L 6 55 z M 8 59 L 30 59 L 30 83 L 8 83 L 8 59 z M 41.8125 69 A 2.0021961 2.0021961 0 1 0 42 73 L 94 73 A 2.0001996 2.0001996 0 1 0 94 69 L 42 69 A 2.0001996 2.0001996 0 0 0 41.8125 69 z " transform="translate(0,952.36218)"></path></g></svg>