<svg height='300px' width='300px'  fill="#070000" xmlns="http://www.w3.org/2000/svg" xmlns:xlink="http://www.w3.org/1999/xlink" version="1.1" x="0px" y="0px" viewBox="0 0 32 32" style="enable-background:new 0 0 32 32;" xml:space="preserve"><g><path d="M21.999,21c-0.19,0-0.383-0.055-0.554-0.168l-6-4C15.167,16.646,15,16.334,15,16V6c0-0.552,0.448-1,1-1s1,0.448,1,1v9.465   l5.555,3.703c0.46,0.307,0.584,0.927,0.277,1.387C22.64,20.844,22.322,21,21.999,21z"></path><path d="M16,32C7.178,32,0,24.822,0,16S7.178,0,16,0s16,7.178,16,16S24.822,32,16,32z M16,2C8.28,2,2,8.28,2,16s6.28,14,14,14   s14-6.28,14-14S23.72,2,16,2z"></path></g></svg>