<svg height='300px' width='300px'  fill="#070000" xmlns="http://www.w3.org/2000/svg" xmlns:xlink="http://www.w3.org/1999/xlink" xmlns:serif="http://www.serif.com/" viewBox="0 0 32 32" version="1.1" xml:space="preserve" style="" x="0px" y="0px" fill-rule="evenodd" clip-rule="evenodd" stroke-linejoin="round" stroke-miterlimit="2"><g transform="matrix(1,0,0,1,-224,-80)"><g><path d="M243,102C243,99.239 240.761,97 238,97C235.557,97 232.443,97 230,97C227.239,97 225,99.239 225,102C225,102.893 225,103.785 225,104.5C225,105.163 225.263,105.799 225.732,106.268C226.201,106.737 226.837,107 227.5,107C230.551,107 237.449,107 240.5,107C241.163,107 241.799,106.737 242.268,106.268C242.737,105.799 243,105.163 243,104.5C243,103.785 243,102.893 243,102ZM246,107L252.5,107C253.881,107 255,105.881 255,104.5L255,104C255,103.204 254.684,102.441 254.121,101.879C253.559,101.316 252.796,101 252,101C252,101 246,101 246,101C245.448,101 245,101.448 245,102C245,102.552 245.448,103 246,103L252,103C252.265,103 252.52,103.105 252.707,103.293C252.895,103.48 253,103.735 253,104L253,104.5C253,104.776 252.776,105 252.5,105L246,105C245.448,105 245,105.448 245,106C245,106.552 245.448,107 246,107ZM241,102L241,104.5C241,104.633 240.947,104.76 240.854,104.854C240.76,104.947 240.633,105 240.5,105C237.449,105 230.551,105 227.5,105C227.367,105 227.24,104.947 227.146,104.854C227.053,104.76 227,104.633 227,104.5L227,102C227,100.343 228.343,99 230,99C230,99 238,99 238,99C239.657,99 241,100.343 241,102ZM248,91C245.792,91 244,92.792 244,95C244,97.208 245.792,99 248,99C250.208,99 252,97.208 252,95C252,92.792 250.208,91 248,91ZM248,93C249.104,93 250,93.896 250,95C250,96.104 249.104,97 248,97C246.896,97 246,96.104 246,95C246,93.896 246.896,93 248,93ZM234,85C231.24,85 229,87.24 229,90C229,92.76 231.24,95 234,95C236.76,95 239,92.76 239,90C239,87.24 236.76,85 234,85ZM234,87C235.656,87 237,88.344 237,90C237,91.656 235.656,93 234,93C232.344,93 231,91.656 231,90C231,88.344 232.344,87 234,87Z"></path></g></g></svg>