<?xml version="1.0" encoding="UTF-8" standalone="no"?>
<!DOCTYPE svg PUBLIC "-//W3C//DTD SVG 1.1//EN" "http://www.w3.org/Graphics/SVG/1.1/DTD/svg11.dtd">
<svg width="100%" height="100%" viewBox="0 0 752 752" version="1.1" xmlns="http://www.w3.org/2000/svg" xmlns:xlink="http://www.w3.org/1999/xlink" xml:space="preserve" xmlns:serif="http://www.serif.com/" style="fill-rule:evenodd;clip-rule:evenodd;stroke-linejoin:round;stroke-miterlimit:2;">
    <g id="_-000000ff" serif:id="#000000ff">
        <g transform="matrix(1.73454,0,0,1.73828,-276.184,-277.579)">
            <path d="M371.36,193.67C377.52,191.44 384.94,194.15 388.2,199.83C390.71,203.74 390.18,208.55 390.21,212.97C390.2,255.33 390.22,297.68 390.2,340.04C390,345.4 393.08,350.7 397.89,353.1C402.51,355.57 407.93,354.41 412.95,354.67C417.69,354.88 422.65,353.99 427.24,355.61C433.02,357.71 436.93,363.89 436.34,370.02C436.14,373.76 433.95,376.92 432.15,380.08C417.52,405.53 402.88,430.98 388.15,456.37C384.53,462.67 375.77,465.11 369.42,461.58C365.85,459.87 363.75,456.4 361.95,453.05C347.08,427.25 332.14,401.48 317.19,375.73C312.41,367.77 317.89,356.38 327.03,355.03C334.48,354.37 341.99,355.19 349.46,354.64C356.22,353.91 361.79,347.67 361.77,340.87C361.84,296.25 361.75,251.62 361.81,207C361.72,201.1 365.8,195.52 371.36,193.67Z" style="fill-rule:nonzero;"/>
        </g>
        <g transform="matrix(1.73454,0,0,1.73828,-276.184,-277.579)">
            <path d="M232.39,251.44C260.94,251.18 289.49,251.42 318.05,251.32C323.93,250.94 329.86,254.35 332.17,259.83C335.09,266.08 332.55,274.16 326.61,277.66C323.19,279.93 318.95,279.87 315.01,279.82C288.68,279.77 262.36,279.82 236.03,279.79C222.23,279.66 208.64,286.48 200.38,297.51C194.43,305.33 191.19,315.15 191.3,324.97C191.31,374.32 191.3,423.66 191.31,473.01C191.43,482.34 190.44,492.02 193.91,500.93C199.76,518.06 216.9,530.46 235.01,530.65C328.72,530.69 422.42,530.66 516.13,530.66C528.97,530.66 541.64,524.78 549.93,514.99C557.03,506.75 560.9,495.87 560.7,485.01C560.68,431.32 560.72,377.64 560.68,323.96C560.69,305.84 548.47,288.59 531.41,282.53C522.36,278.86 512.48,279.94 502.96,279.8C479.64,279.78 456.31,279.83 432.99,279.78C425.51,280.01 418.67,273.52 418.62,266.02C418.14,258.21 425.14,251.07 432.96,251.35C460.65,251.32 488.34,251.33 516.04,251.34C531.98,251.34 547.85,256.75 560.47,266.49C578.18,279.92 589.07,301.77 589.11,323.99C589.13,377.65 589.1,431.32 589.12,484.98C589.45,506.12 580.07,527.16 564.06,541C550.91,552.54 533.52,559.12 516.01,559.07C422.67,559.06 329.33,559.06 235.99,559.07C219.45,559.11 202.98,553.27 190.13,542.86C173.38,529.49 163.09,508.45 162.9,487.01C162.87,433.33 162.91,379.66 162.88,325.99C162.32,303.34 173.01,280.82 190.91,266.95C202.7,257.67 217.4,252.17 232.39,251.44Z" style="fill-rule:nonzero;"/>
        </g>
    </g>
</svg>
