<svg height='300px' width='300px'  fill="#070000" xmlns="http://www.w3.org/2000/svg" viewBox="0 0 64 64" x="0px" y="0px"><title>file_1</title><g><path d="M49.82,20.13,38.66,8A4.51,4.51,0,0,0,35.35,6.5H17.5A4.5,4.5,0,0,0,13,11V53a4.5,4.5,0,0,0,4.5,4.5h29A4.5,4.5,0,0,0,51,53V23.17A4.49,4.49,0,0,0,49.82,20.13ZM48,53a1.5,1.5,0,0,1-1.5,1.5h-29A1.5,1.5,0,0,1,16,53V11a1.5,1.5,0,0,1,1.5-1.5H35.35a1.5,1.5,0,0,1,1.11.49L47.61,22.15a1.49,1.49,0,0,1,.39,1Z"></path><path d="M50.76,22a1.5,1.5,0,0,1-1.5,1.5h-9.6a4.5,4.5,0,0,1-4.5-4.5V8.31a1.5,1.5,0,0,1,3,0V19a1.5,1.5,0,0,0,1.5,1.5h9.6A1.5,1.5,0,0,1,50.76,22Z"></path></g></svg>