<svg xmlns="http://www.w3.org/2000/svg" xmlns:xlink="http://www.w3.org/1999/xlink" height="300px" width="300px" fill="#070000" version="1.1" x="0px" y="0px" viewBox="0 0 100 100" style="enable-background:new 0 0 100 100;" xml:space="preserve"><g><path d="M73.2,36.3L47,18.3c-5.2-3.6-11.6-3.9-17.1-1c-5.6,2.9-8.9,8.4-8.9,14.7v36.1c0,6.3,3.3,11.8,8.9,14.7   c2.5,1.3,5.1,1.9,7.8,1.9c3.3,0,6.5-1,9.4-3l26.2-18.1c4.5-3.1,7.2-8.2,7.2-13.7S77.7,39.4,73.2,36.3z M70.9,60.4L44.7,78.4   c-3.9,2.7-8.8,3-13,0.8C27.5,77,25,72.8,25,68.1V31.9c0-4.8,2.5-8.9,6.7-11.2c1.9-1,3.9-1.5,5.9-1.5c2.5,0,4.9,0.8,7.1,2.3   l26.2,18.1c3.5,2.4,5.5,6.2,5.5,10.4S74.4,58,70.9,60.4z"/></g></svg>