<svg height='300px' width='300px'  fill="#070000" xmlns="http://www.w3.org/2000/svg" xmlns:xlink="http://www.w3.org/1999/xlink" version="1.1" x="0px" y="0px" viewBox="0 0 100 100" style="enable-background:new 0 0 100 100;" xml:space="preserve"><g><path d="M11.7,49c0-6.3,5.1-11.4,11.4-11.4h22.4v-8.3H23.1C12.2,29.3,3.4,38.1,3.4,49s8.8,19.7,19.7,19.7h22.4v-8.3   H23.1C16.8,60.4,11.7,55.3,11.7,49z M76.9,29.3H54.5v8.3h22.4c6.3,0,11.4,5.1,11.4,11.4c0,6.3-5.1,11.4-11.4,11.4H54.5v8.3h22.4   c10.9,0,19.7-8.8,19.7-19.7S87.8,29.3,76.9,29.3z M26.3,49c0,2.3,1.9,4.2,4.2,4.2h39.1c2.3,0,4.2-1.9,4.2-4.2   c0-2.3-1.9-4.2-4.2-4.2H30.5C28.2,44.8,26.3,46.7,26.3,49z"></path></g></svg>