<svg width="100%" height="100%" viewBox="0 0 200 200" version="1.1" xmlns="http://www.w3.org/2000/svg" xmlns:xlink="http://www.w3.org/1999/xlink" xml:space="preserve" xmlns:serif="http://www.serif.com/" style="fill-rule:evenodd;clip-rule:evenodd;stroke-linejoin:round;stroke-miterlimit:2;">
    <g transform="matrix(0.979956,0,0,0.979956,2.00439,2.00437)">
        <g>
            <g>
                <path d="M3.334,103.333C2.501,103.333 1.664,103.023 1.021,102.4C-0.306,101.12 -0.343,99.01 0.934,97.687L94.267,1.02C95.551,-0.303 97.667,-0.347 98.981,0.933C100.307,2.213 100.344,4.323 99.067,5.647L5.734,102.313C5.077,102.99 4.207,103.333 3.334,103.333"/>
                <path d="M102.51,13.62L125.82,112.683L189.924,98.116L102.51,13.62ZM123.33,120C121.817,120 120.45,118.966 120.087,117.433L93.42,4.1C93.084,2.656 93.734,1.166 95.02,0.436C96.307,-0.294 97.924,-0.094 98.984,0.936L198.984,97.603C199.864,98.453 200.207,99.716 199.877,100.9C199.547,102.076 198.6,102.98 197.407,103.253L124.074,119.92C123.827,119.973 123.574,120 123.33,120Z"/>
                <path d="M125.902,119.502L104.132,184.815L185.776,105.895L125.902,119.502ZM96.666,199.999C96.056,199.999 95.436,199.832 94.889,199.485C93.592,198.669 93.019,197.072 93.506,195.612L120.172,115.612C120.542,114.509 121.459,113.675 122.596,113.415L195.929,96.749C197.392,96.425 198.889,97.099 199.599,98.415C200.309,99.729 200.059,101.359 198.986,102.395L98.986,199.062C98.342,199.682 97.509,199.999 96.666,199.999Z"/>
                <path d="M12.439,104.629L95.245,190.392L118.902,119.419L12.439,104.629ZM96.669,199.999C95.772,199.999 94.905,199.639 94.269,198.982L0.935,102.316C-0.051,101.292 -0.281,99.756 0.362,98.489C1.009,97.222 2.372,96.496 3.792,96.699L123.792,113.366C124.772,113.502 125.645,114.066 126.165,114.909C126.689,115.752 126.812,116.782 126.495,117.722L99.829,197.722C99.459,198.829 98.542,199.659 97.405,199.919C97.159,199.976 96.912,199.999 96.669,199.999Z"/>
            </g>
        </g>
    </g>
</svg>
