<svg width="100%" height="100%" viewBox="0 0 752 752" version="1.1" xmlns="http://www.w3.org/2000/svg" xmlns:xlink="http://www.w3.org/1999/xlink" xml:space="preserve" xmlns:serif="http://www.serif.com/" style="fill-rule:evenodd;clip-rule:evenodd;stroke-linejoin:round;stroke-miterlimit:2;">
    <g transform="matrix(1.70398,0,0,1.76132,-272.363,-285.541)">
        <path d="M435.2,242.81L435.2,213.208C435.2,188.685 415.325,168.81 390.802,168.81L361.204,168.81C336.681,168.81 316.806,188.685 316.806,213.208L316.806,242.81C316.806,267.33 336.681,287.205 361.204,287.205L390.802,287.205C415.325,287.205 435.2,267.33 435.2,242.81ZM405.602,213.208L405.602,242.81C405.602,250.978 398.969,257.607 390.801,257.607L361.203,257.607C353.031,257.607 346.402,250.978 346.402,242.81L346.402,213.208C346.402,205.04 353.031,198.411 361.203,198.411L390.801,198.411C398.969,198.411 405.602,205.04 405.602,213.208Z"/>
        <path d="M435.2,538.79L435.2,509.192C435.2,484.669 415.325,464.794 390.802,464.794L361.204,464.794C336.681,464.794 316.806,484.669 316.806,509.192L316.806,538.79C316.806,563.313 336.681,583.188 361.204,583.188L390.802,583.188C415.325,583.188 435.2,563.313 435.2,538.79ZM405.602,509.192L405.602,538.79C405.602,546.962 398.969,553.591 390.801,553.591L361.203,553.591C353.031,553.591 346.402,546.962 346.402,538.79L346.402,509.192C346.402,501.024 353.031,494.395 361.203,494.395L390.801,494.395C398.969,494.395 405.602,501.024 405.602,509.192Z"/>
        <path d="M583.19,538.79L583.19,509.192C583.19,484.669 563.315,464.794 538.792,464.794L509.194,464.794C484.671,464.794 464.796,484.669 464.796,509.192L464.796,538.79C464.796,563.313 484.671,583.188 509.194,583.188L538.792,583.188C563.315,583.188 583.19,563.313 583.19,538.79ZM553.592,509.192L553.592,538.79C553.592,546.962 546.963,553.591 538.791,553.591L509.193,553.591C501.025,553.591 494.396,546.962 494.396,538.79L494.396,509.192C494.396,501.024 501.025,494.395 509.193,494.395L538.791,494.395C546.963,494.395 553.592,501.024 553.592,509.192Z"/>
        <path d="M287.2,538.79L287.2,509.192C287.2,484.669 267.325,464.794 242.805,464.794L213.203,464.794C188.68,464.794 168.805,484.669 168.805,509.192L168.805,538.79C168.805,563.313 188.68,583.188 213.203,583.188L242.805,583.188C267.325,583.188 287.2,563.313 287.2,538.79ZM257.602,509.192L257.602,538.79C257.602,546.962 250.973,553.591 242.805,553.591L213.203,553.591C205.035,553.591 198.406,546.962 198.406,538.79L198.406,509.192C198.406,501.024 205.035,494.395 213.203,494.395L242.805,494.395C250.973,494.395 257.602,501.024 257.602,509.192Z"/>
        <path d="M361.2,331.6L361.2,420.397C361.2,428.569 367.829,435.198 375.997,435.198C384.169,435.198 390.798,428.569 390.798,420.397L390.798,331.6C390.798,323.432 384.169,316.803 375.997,316.803C367.829,316.803 361.2,323.432 361.2,331.6Z"/>
        <path d="M213.21,420.21L213.21,420.401C213.21,428.573 219.835,435.202 228.011,435.202C228.011,435.202 242.812,434.062 242.812,420.21L242.812,405.605C242.812,401.684 244.374,397.91 247.152,395.14C249.913,392.359 253.691,390.805 257.609,390.805L494.399,390.805C498.317,390.805 502.094,392.359 504.856,395.14C507.633,397.91 509.196,401.683 509.196,405.605L509.196,435.203C509.196,443.371 515.821,450.004 523.997,450.004C532.172,450.004 538.798,443.372 538.798,435.203L538.798,405.605C538.798,393.824 534.118,382.531 525.786,374.214C517.469,365.882 506.169,361.206 494.399,361.206L257.609,361.206C245.843,361.206 234.539,365.882 226.222,374.214C217.89,382.531 213.21,393.823 213.21,405.605L213.21,420.21L213.21,420.21Z"/>
    </g>
</svg>
