<svg width="100%" height="100%" viewBox="0 0 752 752" version="1.1" xmlns="http://www.w3.org/2000/svg" xmlns:xlink="http://www.w3.org/1999/xlink" xml:space="preserve" xmlns:serif="http://www.serif.com/" style="fill-rule:evenodd;clip-rule:evenodd;stroke-linejoin:round;stroke-miterlimit:2;">
    <g id="_-000000ff" serif:id="#000000ff" transform="matrix(1.95766,0,0,1.95766,-360.071,-360.113)">
        <path d="M213.16,214.12C222.85,199.8 238.65,189.67 255.82,187.24C261.17,186.39 266.6,186.62 272,186.6L369.97,186.6C382.71,186.63 395.35,190.85 405.68,198.29C419.06,207.82 428.51,222.77 431.09,239.02C433.55,253.65 430.52,269.06 422.85,281.74C440.01,285.53 455.25,296.95 463.79,312.29C473.39,329.21 474.32,350.66 466.34,368.39C463.22,375.43 458.72,381.83 453.3,387.29C435.87,404.93 418.4,422.55 400.97,440.19C430,440.22 459.02,440.18 488.05,440.21C501.08,440.32 513.96,444.83 524.38,452.63C537.05,462.05 546.03,476.37 548.69,491.96C551.05,505.36 548.96,519.56 542.55,531.59C534.28,547.71 518.69,559.83 501.02,563.83C495.13,565.25 489.05,565.52 483.02,565.47C450,565.45 416.98,565.48 383.97,565.46C360.41,566.13 337.35,552.15 326.88,531.08C317,512.24 318.04,488.38 329.13,470.28C311.76,466.37 296.32,454.75 287.87,439.05C277.32,419.82 277.9,395.06 289.47,376.41C293.8,369 300.25,363.25 306.17,357.17C321.11,342.07 336.05,326.99 350.97,311.87C322.3,311.84 293.63,311.76 264.96,311.8C250.17,311.89 235.5,306.37 224.32,296.72C211.31,285.64 203.06,269.09 202.42,251.98C201.78,238.64 205.56,225.12 213.16,214.12M237.6,234.6C231.92,244.95 232.97,258.52 240.2,267.86C245.95,275.56 255.39,280.3 265.01,280.25C304.08,280.29 343.15,280.25 382.21,280.27C388.42,273.75 396.13,267.89 398.8,258.89C403.74,244.85 396.75,228.07 383.41,221.56C378.36,218.9 372.6,217.98 366.94,218.13C332.95,218.16 298.96,218.1 264.97,218.15C253.72,218.04 242.81,224.65 237.6,234.6M395.38,311.88C370.59,336.95 345.79,362 321.01,387.07C314.5,393.52 311.08,402.92 312.01,412.05C312.95,423.57 320.97,434.1 331.78,438.13C339.67,441.23 348.3,439.92 356.56,440.19C381.37,415.13 406.17,390.06 430.95,364.97C434.9,360.98 437.86,355.98 439.22,350.52C442.96,336.8 435.81,321.22 423,315.09C414.5,310.55 404.61,312.13 395.38,311.88M357.2,485.11C349.64,495.64 349.87,510.93 357.73,521.24C363.5,529.14 373.16,533.97 382.95,533.85C417.98,533.85 453.01,533.93 488.05,533.81C504.2,533.67 518.35,519.1 518.05,502.96C518.54,486.67 504.26,471.86 487.96,471.79C448.57,471.66 409.18,471.77 369.8,471.73C365.58,476.17 360.86,480.17 357.2,485.11Z" style="fill-rule:nonzero;"/>
    </g>
</svg>
