
<svg height='300px' width='300px'  fill="#070000" xmlns="http://www.w3.org/2000/svg" xmlns:xlink="http://www.w3.org/1999/xlink" xmlns:figma="http://www.figma.com/figma/ns" viewBox="0 0 86 64" version="1.1" x="0px" y="0px"><title>Union</title><desc>Created using Figma</desc><g transform="translate(-872 -120)" figma:type="canvas"><g style="mix-blend-mode:normal;" figma:type="vector"><use xlink:href="#d" transform="translate(872 120.868)" style="mix-blend-mode:normal;"></use><use xlink:href="#c" transform="translate(872 120.868)" style="mix-blend-mode:normal;"></use><use xlink:href="#b" transform="translate(872 120.868)" style="mix-blend-mode:normal;"></use><use xlink:href="#a" transform="translate(872 120.868)" style="mix-blend-mode:normal;"></use></g></g><defs><path id="d" d="M 28 19L 69 19L 69 15L 28 15L 28 19Z"></path><path id="c" d="M 69 33.5955L 28 33.5955L 28 29.5955L 69 29.5955L 69 33.5955Z"></path><path id="b" d="M 28 48L 69 48L 69 44L 28 44L 28 48Z"></path><path id="a" fill-rule="evenodd" d="M 6.75775 45.1398L 3.29169 42.4883L 0 39.9702L 3.29169 37.452L 6.75775 34.8005C 9.72577 32.53 11.4667 29.0064 11.4667 25.2695L 11.4667 12.2239C 11.4667 5.47282 17.0283 0 23.8889 0L 73.5778 0C 80.4384 0 86 5.47282 86 12.2239L 86 50.7761C 86 57.5272 80.4384 63 73.5778 63L 23.8889 63C 18.4826 63 14.4119 59.2757 12.5632 54.5346C 11.2057 51.053 9.72577 47.4103 6.75775 45.1398ZM 15.4667 12.2239C 15.4667 7.74242 19.1765 4 23.8889 4L 73.5778 4C 78.2902 4 82 7.74242 82 12.2239L 82 50.7761C 82 55.2576 78.2902 59 73.5778 59L 23.8889 59C 20.5605 59 17.7128 56.7305 16.2899 53.0815L 16.2364 52.9442C 14.9526 49.6502 13.1324 44.9801 9.18811 41.9628L 6.58337 39.9702L 9.18811 37.9775C 13.1455 34.9502 15.4667 30.2521 15.4667 25.2695L 15.4667 12.2239Z"></path></defs></svg>