<svg height='200' width='200'  fill="Black" xmlns="http://www.w3.org/2000/svg" xmlns:xlink="http://www.w3.org/1999/xlink" version="1.1" x="0px" y="0px" viewBox="0 0 100 100" style="enable-background:new 0 0 100 100;" xml:space="preserve"><g><path d="M50,5C25.2,5,5,25.2,5,50c0,8,2.1,15.7,6.1,22.6L5.4,92.5c-0.2,0.7,0,1.4,0.5,2l0.1,0.1c0.4,0.4,0.9,0.6,1.4,0.6   c0.2,0,0.4,0,0.5-0.1l20.1-5.7C34.8,93,42.4,95,50,95c24.8,0,45-20.2,45-45C95,25.2,74.8,5,50,5z M50,91c-7.2,0-14.3-1.9-20.6-5.5   c-0.3-0.2-0.7-0.3-1-0.3c-0.2,0-0.4,0-0.5,0.1l-17.7,5l4.9-17.4c0.2-0.5,0.1-1.1-0.2-1.6C11.1,64.9,9,57.5,9,50C9,27.4,27.4,9,50,9   s41,18.4,41,41S72.6,91,50,91z"></path><path d="M84,48h-9.1c-0.1-6-1.2-12.4-3.9-19h5c1.1,0,2-0.9,2-2s-0.9-2-2-2h-6.8c-1.7-3.4-3.9-6.8-6.6-10.2c-0.7-0.9-1.9-1-2.8-0.3   c-0.9,0.7-1,1.9-0.3,2.8c2,2.5,3.8,5.1,5.2,7.8H52v-9c0-1.1-0.9-2-2-2s-2,0.9-2,2v9H35.8c2.5-4.8,4.7-7.7,4.8-7.8   c0.7-0.9,0.5-2.1-0.3-2.8c-0.9-0.7-2.1-0.5-2.8,0.3c-0.1,0.1-3.1,3.9-6.1,10.2H24c-1.1,0-2,0.9-2,2s0.9,2,2,2h5.6   c-2.1,5.3-4,11.8-4.4,19H16c-1.1,0-2,0.9-2,2s0.9,2,2,2h9.1c0.1,6,1.2,12.4,3.9,19h-5c-1.1,0-2,0.9-2,2s0.9,2,2,2h6.8   c1.7,3.4,3.9,6.8,6.6,10.2c0.4,0.5,1,0.8,1.6,0.8c0.4,0,0.9-0.1,1.2-0.4c0.9-0.7,1-1.9,0.3-2.8c-2-2.5-3.8-5.1-5.2-7.8H48v9   c0,1.1,0.9,2,2,2s2-0.9,2-2v-9h12.2c-2.5,4.8-4.7,7.7-4.8,7.8c-0.7,0.9-0.5,2.1,0.3,2.8c0.4,0.3,0.8,0.4,1.2,0.4   c0.6,0,1.2-0.3,1.6-0.8c0.1-0.1,3.1-3.9,6.1-10.2H76c1.1,0,2-0.9,2-2s-0.9-2-2-2h-5.6c2.1-5.3,4-11.8,4.4-19H84c1.1,0,2-0.9,2-2   S85.1,48,84,48z M66.7,29c2.8,6.1,4.2,12.4,4.3,19H52V29H66.7z M30.8,37.9c0.9-3.3,2-6.3,3.1-8.9H48v19H29.1   C29.3,44.7,29.9,41.3,30.8,37.9z M33.3,71c-2.8-6.1-4.2-12.4-4.3-19h19v19H33.3z M69.2,62.1c-0.9,3.3-2,6.3-3.1,8.9H52V52h18.9   C70.7,55.3,70.1,58.7,69.2,62.1z"></path></g></svg>