<svg height='300px' width='300px'  fill="#070000" xmlns="http://www.w3.org/2000/svg" xmlns:xlink="http://www.w3.org/1999/xlink" version="1.1" x="0px" y="0px" viewBox="0 0 32 32" enable-background="new 0 0 32 32" xml:space="preserve"><path d="M20.998,1.999H7c-1.206,0-3,0.799-3,3V11c0,0.552,0.448,1,1,1s1-0.448,1-1V4.999c0-0.805,0.55-0.988,1-1h13.001v3  c0,1.206,0.799,3,3,3H26v17.002c0,0.805-0.549,0.988-1.011,1c-0.002,0-0.003,0.001-0.005,0.001H9.997c-2.206,0-4-1.794-4-4v-5  c0-1.654,1.346-3,3-3s3,1.345,3,2.999v3.988c-0.012,0.462-0.195,1.012-1,1.012s-0.988-0.55-1-1v-4c0-0.553-0.448-1-1-1s-1,0.447-1,1  v4c0,1.206,0.799,3,3,3s3-1.794,3-3v-3.999c0-2.757-2.243-5-5-5s-5,2.243-5,5v5c0,3.309,2.691,6,6,6h15.007  c0.004,0,0.007-0.002,0.011-0.002C26.221,29.994,28,29.194,28,27.001v-18C28,6.579,26.536,1.999,20.998,1.999z M22.001,6.999v-2.92  c2.798,0.423,3.643,2.59,3.893,3.92h-2.893C22.195,7.999,22.013,7.449,22.001,6.999z"></path></svg>