<svg width="100%" height="100%" viewBox="0 0 300 300" version="1.1" xmlns="http://www.w3.org/2000/svg" xmlns:xlink="http://www.w3.org/1999/xlink" xml:space="preserve" xmlns:serif="http://www.serif.com/" style="fill-rule:evenodd;clip-rule:evenodd;stroke-linejoin:round;stroke-miterlimit:2;">
    <g transform="matrix(1.08438,0,0,1.10544,-12.6551,-15.8161)">
        <path d="M196.856,18.741L65.625,18.741C54.319,18.741 37.5,26.231 37.5,46.866L37.5,103.125C37.5,108.3 41.7,112.5 46.875,112.5C52.05,112.5 56.25,108.3 56.25,103.125L56.25,46.866C56.25,39.319 61.406,37.603 65.625,37.491L187.509,37.491L187.509,65.616C187.509,76.922 195,93.741 215.634,93.741L243.75,93.741L243.75,253.134C243.75,260.681 238.603,262.397 234.272,262.509C234.253,262.509 234.244,262.519 234.225,262.519L93.722,262.519C73.041,262.519 56.222,245.7 56.222,225.019L56.222,178.144C56.222,162.637 68.841,150.019 84.347,150.019C99.853,150.019 112.472,162.628 112.472,178.134L112.472,215.522C112.359,219.853 110.644,225.009 103.097,225.009C95.55,225.009 93.834,219.853 93.722,215.634L93.722,178.134C93.722,172.95 89.522,168.759 84.347,168.759C79.172,168.759 74.972,172.95 74.972,178.134L74.972,215.634C74.972,226.941 82.462,243.759 103.097,243.759C123.731,243.759 131.222,226.941 131.222,215.634L131.222,178.144C131.222,152.297 110.194,131.269 84.347,131.269C58.5,131.269 37.472,152.297 37.472,178.144L37.472,225.019C37.472,256.041 62.7,281.269 93.722,281.269L234.412,281.269C234.45,281.269 234.478,281.25 234.516,281.25C245.822,281.194 262.5,273.694 262.5,253.134L262.5,84.384C262.5,61.678 248.775,18.741 196.856,18.741ZM206.259,65.616L206.259,38.241C232.491,42.206 240.413,62.522 242.756,74.991L215.634,74.991C208.078,74.991 206.372,69.834 206.259,65.616Z" style="fill-rule:nonzero;"/>
    </g>
</svg>
