<svg width="100%" height="100%" viewBox="0 0 3009 1561" version="1.1" xmlns="http://www.w3.org/2000/svg" xmlns:xlink="http://www.w3.org/1999/xlink" xml:space="preserve" xmlns:serif="http://www.serif.com/" style="fill-rule:evenodd;clip-rule:evenodd;stroke-linejoin:round;stroke-miterlimit:1.41421;">
    <g transform="matrix(0.862652,0,0,0.862652,-540.428,-1165.99)">
        <g transform="matrix(11.6762,0,0,11.6762,-257.532,-369.263)">
            <path d="M283.82,150.11C311.45,142.73 342.74,150.56 363.01,170.91C353.88,179.36 344.74,187.79 335.6,196.23C327.06,187.83 314.97,183.23 302.99,183.97C288.27,184.49 274.32,193.38 267.3,206.27C262.36,215.16 261.34,226.01 264.12,235.74C267.71,248.03 277.49,258.09 289.3,262.79C305.16,269.19 324.66,265.15 336.43,252.67C336.44,243.6 336.42,234.53 336.44,225.45C349.09,225.45 361.75,225.44 374.41,225.46C374.42,237.32 374.4,249.18 374.43,261.04C374.46,262.83 374.31,264.72 373.18,266.2C364.01,280.11 350.23,290.72 334.79,296.83C316.61,303.87 295.92,304.06 277.54,297.64C259.55,291.27 243.88,278.4 234.38,261.83C225.45,246.56 222.64,228.01 225.9,210.69C231.32,181.49 255.34,157.49 283.82,150.11Z" style="fill-rule:nonzero;"/>
        </g>
        <g transform="matrix(11.6762,0,0,11.6762,-257.532,-369.263)">
            <path d="M138.41,159.15C142.49,149.83 155.17,146 163.9,151.02C167.29,152.92 169.95,156.01 171.49,159.57C192.33,206.46 213.15,253.35 233.97,300.25C219.91,300.25 205.84,300.25 191.78,300.25C179.53,272.69 167.31,245.11 155.06,217.56C142.72,245.11 130.46,272.69 118.13,300.25C103.99,300.25 89.85,300.24 75.71,300.23C96.59,253.2 117.51,206.17 138.41,159.15Z" style="fill-rule:nonzero;"/>
        </g>
    </g>
</svg>
